<?xml version="1.0" encoding="UTF-8" standalone="no"?>
<!-- Created with Inkscape (http://www.inkscape.org/) -->

<svg
   width="127mm"
   height="128.5mm"
   viewBox="0 0 127 128.5"
   version="1.1"
   id="svg1"
   inkscape:version="1.3.2 (091e20e, 2023-11-25, custom)"
   sodipodi:docname="XLimitJIVCO.svg"
   xmlns:inkscape="http://www.inkscape.org/namespaces/inkscape"
   xmlns:sodipodi="http://sodipodi.sourceforge.net/DTD/sodipodi-0.dtd"
   xmlns="http://www.w3.org/2000/svg"
   xmlns:svg="http://www.w3.org/2000/svg">
  <sodipodi:namedview
     id="namedview1"
     pagecolor="#ffffff"
     bordercolor="#000000"
     borderopacity="0.25"
     inkscape:showpageshadow="2"
     inkscape:pageopacity="0.0"
     inkscape:pagecheckerboard="0"
     inkscape:deskcolor="#d1d1d1"
     inkscape:document-units="mm"
     inkscape:zoom="1"
     inkscape:cx="53"
     inkscape:cy="268.5"
     inkscape:window-width="1920"
     inkscape:window-height="1111"
     inkscape:window-x="-9"
     inkscape:window-y="-9"
     inkscape:window-maximized="1"
     inkscape:current-layer="layer2" />
  <defs
     id="defs1">
    <inkscape:perspective
       sodipodi:type="inkscape:persp3d"
       inkscape:vp_x="73.040122 : 10.461338 : 1"
       inkscape:vp_y="0 : 94.40189 : 0"
       inkscape:vp_z="91.279977 : 10.461338 : 1"
       inkscape:persp3d-origin="82.160049 : 8.4395625 : 1"
       id="perspective79" />
  </defs>
  <g
     inkscape:groupmode="layer"
     id="layer2"
     inkscape:label="Background">
    <rect
       style="fill:#ffffff;stroke:#ffffff;stroke-width:0.264999"
       id="rect2"
       width="136.32275"
       height="147.86719"
       x="-5.1566968"
       y="-9.6786537" />
    <rect
       style="fill:#000000;stroke:#ffffff;stroke-width:0.264999"
       id="rect6"
       width="51.090324"
       height="25.790789"
       x="70.1325"
       y="85.723663"
       rx="2"
       ry="2" />
    <rect
       style="fill:#000000;stroke:#ffffff;stroke-width:0.299054"
       id="rect5"
       width="119.70094"
       height="7.8259945"
       x="4.1495271"
       y="20.149527" />
    <rect
       style="fill:#000000;stroke:#000000;stroke-width:0.264999"
       id="rect3-7"
       width="106.54959"
       height="3.0333066"
       x="-137.49899"
       y="39.699417"
       transform="rotate(-42.378706)" />
    <rect
       style="fill:#000000;stroke:#000000;stroke-width:0.264999"
       id="rect3-3"
       width="106.54959"
       height="3.0333066"
       x="-147.60942"
       y="50.779999"
       transform="rotate(-42.378706)" />
    <rect
       style="fill:#000000;stroke:#000000;stroke-width:0.264999"
       id="rect3-30"
       width="106.54959"
       height="3.0333066"
       x="-157.71983"
       y="61.860596"
       transform="rotate(-42.378706)" />
    <rect
       style="fill:#000000;stroke:#000000;stroke-width:0.264999"
       id="rect3"
       width="106.54959"
       height="3.0333066"
       x="-61.805416"
       y="5.7018757"
       transform="rotate(-42.378706)" />
  </g>
  <g
     inkscape:label="Text"
     inkscape:groupmode="layer"
     id="layer1">
    <path
       style="font-weight:900;font-size:4.9389px;font-family:Arial;-inkscape-font-specification:'Arial, Heavy';stroke:#ffffff;stroke-width:0.265"
       d="m 44.115112,4.8159377 h 1.203375 l 0.627008,1.0876191 0.607717,-1.0876191 h 1.191316 l -1.099677,1.7122163 1.203375,1.8231486 h -1.22749 L 45.923791,7.2154521 45.224435,8.3513026 H 44.00418 L 45.224435,6.5088614 Z M 47.9471,6.6824946 h 1.427651 V 7.4421399 H 47.9471 Z M 49.845008,4.8159377 H 50.93745 V 7.480725 h 1.704981 v 0.8705776 h -2.797423 z m 3.265269,0 h 0.98151 v 0.6680055 h -0.98151 z m 0,0.9742752 h 0.98151 v 2.5610897 h -0.98151 z m 1.615753,0 h 0.916398 v 0.3737937 q 0.197749,-0.2339226 0.397909,-0.332797 0.202572,-0.098874 0.487138,-0.098874 0.30627,0 0.484726,0.1085208 0.178456,0.1085207 0.2918,0.3231507 0.231511,-0.2508036 0.422025,-0.3400317 0.190514,-0.09164 0.470257,-0.09164 0.412379,0 0.64389,0.2459804 0.231511,0.2435688 0.231511,0.7644684 V 8.3513026 H 58.087762 V 6.8923014 q 0,-0.1736332 -0.06752,-0.2580383 -0.09887,-0.1326364 -0.24598,-0.1326364 -0.173633,0 -0.279743,0.1254017 Q 57.38841,6.7524302 57.38841,7.029761 V 8.3513026 H 56.404485 V 6.9405328 q 0,-0.16881 -0.01929,-0.2290993 -0.03135,-0.096463 -0.108521,-0.1543407 -0.07717,-0.060289 -0.180868,-0.060289 -0.16881,0 -0.27733,0.1278134 -0.108524,0.127813 -0.108524,0.4196132 V 8.3513026 H 54.72603 Z m 4.967839,-0.9742752 h 0.98151 v 0.6680055 h -0.98151 z m 0,0.9742752 h 0.98151 v 2.5610897 h -0.98151 z M 62.48647,4.8159377 v 0.9742752 h 0.540192 V 6.5064498 H 62.48647 v 0.9091628 q 0,0.1639869 0.03135,0.2170415 0.04823,0.081993 0.168811,0.081993 0.10852,0 0.303858,-0.062701 l 0.07235,0.6776518 q -0.364148,0.079582 -0.680064,0.079582 -0.366559,0 -0.540192,-0.094051 -0.173636,-0.094051 -0.258041,-0.2845654 -0.08199,-0.1929258 -0.08199,-0.6221857 V 6.5064498 H 61.140813 V 5.7902129 h 0.361736 V 5.3199563 Z m 4.191312,0 h 1.094853 v 1.9220231 q 0,0.6053046 -0.10852,0.9212206 -0.10611,0.3159159 -0.431672,0.535369 -0.323151,0.2194531 -0.829581,0.2194531 -0.535369,0 -0.829581,-0.1446944 Q 65.27907,8.1246148 65.117494,7.847284 64.958331,7.5675416 64.929392,7.1575743 l 1.04421,-0.1422827 q 0.0024,0.2339225 0.041,0.3472664 0.03858,0.1133439 0.130225,0.1832795 0.0627,0.04582 0.178456,0.04582 0.18328,0 0.267685,-0.135048 0.08682,-0.1374596 0.08682,-0.4606103 z m 1.866557,0 h 1.094854 v 3.5353649 h -1.094854 z m 3.17604,0 h 1.143085 l 0.795819,2.5442087 0.783761,-2.5442087 h 1.109323 L 74.240472,8.3513026 H 73.05639 Z m 6.376198,2.0908331 0.957394,0.2893887 q -0.09646,0.4027326 -0.303858,0.6728286 -0.207396,0.2700961 -0.516077,0.4075558 -0.30627,0.1374596 -0.781349,0.1374596 -0.576366,0 -0.942925,-0.1663985 -0.364147,-0.1688101 -0.62942,-0.5908352 -0.265273,-0.4220252 -0.265273,-1.0803844 0,-0.8778123 0.465433,-1.3480689 0.467845,-0.4726681 1.321542,-0.4726681 0.668005,0 1.049034,0.270096 0.38344,0.2700961 0.569131,0.8295809 L 78.05558,6.0699552 q -0.05064,-0.1615753 -0.106109,-0.236334 -0.09164,-0.1254018 -0.224277,-0.1929258 -0.132636,-0.067524 -0.296623,-0.067524 -0.371382,0 -0.569131,0.2990349 -0.149518,0.2218647 -0.149518,0.6969444 0,0.5884236 0.178457,0.8078767 0.178456,0.2170415 0.501607,0.2170415 0.313504,0 0.472668,-0.1760448 0.161575,-0.1760447 0.233923,-0.5112533 z m 1.350482,-0.3207391 q 0,-0.8657544 0.482314,-1.3480689 0.482315,-0.4823144 1.343246,-0.4823144 0.882636,0 1.360131,0.4750797 0.47749,0.4726682 0.47749,1.3263647 0,0.6197741 -0.20981,1.0176835 -0.20739,0.3954979 -0.60289,0.6173625 -0.393089,0.2194531 -0.981512,0.2194531 -0.59807,0 -0.991157,-0.1905142 Q 79.934197,8.0305635 79.690628,7.6181846 79.447059,7.2058058 79.447059,6.5860317 Z m 1.092442,0.00482 q 0,0.5353691 0.197749,0.7692916 0.200161,0.2339225 0.542604,0.2339225 0.352089,0 0.545015,-0.2290994 0.192926,-0.2290993 0.192926,-0.8223461 0,-0.4991955 -0.202572,-0.7282948 -0.200161,-0.231511 -0.545015,-0.231511 -0.330386,0 -0.530546,0.2339226 -0.200161,0.2339225 -0.200161,0.7741146 z"
       id="text1"
       aria-label="X-Limit JI VCO" />
    <path
       style="font-weight:900;font-size:4.9389px;font-family:Arial;-inkscape-font-specification:'Arial, Heavy';fill:#ffffff;stroke:#000000;stroke-width:0.265"
       d="m 48.774,22.132498 h 1.437297 l 0.554662,2.151122 0.55225,-2.151122 h 1.432474 v 3.535365 h -0.892282 v -2.696138 l -0.692121,2.696138 h -0.807877 l -0.68971,-2.696138 v 2.696138 H 48.774 Z m 5.503208,1.803856 -0.938102,-0.09887 q 0.05306,-0.245981 0.151929,-0.385852 0.101286,-0.142283 0.289389,-0.24598 0.135048,-0.07476 0.371382,-0.115756 0.236334,-0.041 0.511253,-0.041 0.441318,0 0.709003,0.05064 0.267684,0.04823 0.44614,0.204984 0.125402,0.108521 0.197749,0.308681 0.07235,0.197749 0.07235,0.378617 v 1.131028 q 0,0.180867 0.02171,0.284565 0.02411,0.101286 0.101286,0.26045 h -0.921221 q -0.05547,-0.09887 -0.07235,-0.149518 -0.01688,-0.05305 -0.03376,-0.163986 -0.192926,0.185691 -0.38344,0.265272 -0.26045,0.10611 -0.605305,0.10611 -0.458198,0 -0.696944,-0.212219 -0.236334,-0.212218 -0.236334,-0.523311 0,-0.2918 0.171221,-0.479903 0.171222,-0.188102 0.631832,-0.279742 0.55225,-0.110932 0.716237,-0.154341 0.163987,-0.04582 0.347267,-0.118167 0,-0.180868 -0.07476,-0.253215 -0.07476,-0.07235 -0.262861,-0.07235 -0.241158,0 -0.361736,0.07717 -0.09405,0.06029 -0.151929,0.226688 z m 0.851285,0.516076 q -0.202572,0.07235 -0.422025,0.127814 -0.299035,0.07958 -0.378617,0.156752 -0.08199,0.07958 -0.08199,0.180868 0,0.115755 0.07958,0.190514 0.08199,0.07235 0.238746,0.07235 0.163987,0 0.303858,-0.07958 0.142283,-0.07958 0.20016,-0.192925 0.06029,-0.115756 0.06029,-0.299035 z m 1.326365,-1.345657 h 1.164789 l 0.407556,0.713826 0.472668,-0.713826 h 1.082796 l -0.872989,1.220256 0.93569,1.340834 h -1.145497 l -0.472668,-0.824758 -0.557073,0.824758 h -1.063504 l 0.930867,-1.340834 z m 5.223466,-0.974275 h 1.815914 q 0.593246,0 0.887458,0.282154 0.296623,0.282154 0.296623,0.803053 0,0.53537 -0.32315,0.836816 -0.320739,0.301447 -0.98151,0.301447 h -0.59807 v 1.311895 h -1.097265 z m 1.097265,1.507233 h 0.267684 q 0.315916,0 0.44373,-0.108521 0.127813,-0.110932 0.127813,-0.282154 0,-0.166399 -0.110932,-0.282154 -0.110933,-0.115755 -0.417202,-0.115755 h -0.311093 z m 2.160769,0.754822 q 0,-0.586012 0.395497,-0.964629 0.395498,-0.381029 1.068327,-0.381029 0.769291,0 1.162378,0.446141 0.315916,0.359325 0.315916,0.885047 0,0.590836 -0.393087,0.969452 -0.390674,0.376206 -1.082795,0.376206 -0.617363,0 -0.998391,-0.313505 -0.467845,-0.388263 -0.467845,-1.017683 z m 0.983921,-0.0024 q 0,0.342443 0.13746,0.50643 0.139871,0.163987 0.349678,0.163987 0.212218,0 0.347266,-0.161575 0.13746,-0.161575 0.13746,-0.518488 0,-0.332797 -0.13746,-0.494372 -0.13746,-0.163987 -0.340032,-0.163987 -0.21463,0 -0.354501,0.166398 -0.139871,0.163987 -0.139871,0.501607 z m 2.052247,-1.285368 h 0.95016 l 0.412379,1.613342 0.520899,-1.613342 h 0.885047 l 0.540193,1.613342 0.412378,-1.613342 h 0.942925 l -0.942925,2.56109 h -0.872989 l -0.518488,-1.541007 -0.501607,1.540995 h -0.877812 z m 7.738737,1.524114 H 73.74342 q 0.02653,0.236334 0.127813,0.352089 0.142283,0.166399 0.371382,0.166399 0.144695,0 0.274919,-0.07235 0.07958,-0.04582 0.171222,-0.161576 l 0.967041,0.08923 q -0.221865,0.385851 -0.535369,0.554661 -0.313505,0.166399 -0.899517,0.166399 -0.508842,0 -0.800642,-0.142283 -0.2918,-0.144694 -0.484726,-0.455787 -0.190514,-0.313505 -0.190514,-0.73553 0,-0.600481 0.38344,-0.971863 0.385851,-0.371383 1.063503,-0.371383 0.549839,0 0.868166,0.166399 0.318328,0.166398 0.484726,0.482314 0.166399,0.315916 0.166399,0.822347 z m -0.998391,-0.470257 q -0.02894,-0.284565 -0.154341,-0.407555 -0.12299,-0.122991 -0.325562,-0.122991 -0.233923,0 -0.373794,0.185691 -0.08923,0.115756 -0.113344,0.344855 z m 1.459,-1.053857 h 0.918809 v 0.419614 q 0.132636,-0.272508 0.272508,-0.373794 0.142282,-0.103698 0.349678,-0.103698 0.217041,0 0.475079,0.135048 l -0.303858,0.699356 q -0.173633,-0.07235 -0.274919,-0.07235 -0.192926,0 -0.299035,0.159164 -0.151929,0.224276 -0.151929,0.839227 v 0.85852 h -0.986333 z"
       id="text2"
       aria-label="Max Power" />
    <path
       style="font-weight:900;font-size:4.9389px;font-family:Arial;-inkscape-font-specification:'Arial, Heavy';stroke:#ffffff;stroke-width:0.265"
       d="M 5.1324998,105.19279 H 6.275585 l 0.7958189,2.54421 0.783761,-2.54421 h 1.1093232 l -1.3118953,3.53537 h -1.184082 z m 4.7146236,-0.0603 H 10.34873 l -0.8874581,3.65353 H 8.964488 Z m 0.7114136,1.83039 q 0,-0.86576 0.482315,-1.34807 0.482314,-0.48232 1.343245,-0.48232 0.882636,0 1.360127,0.47508 0.477491,0.47267 0.477491,1.32637 0,0.61977 -0.209806,1.01768 -0.207396,0.3955 -0.602893,0.61736 -0.393087,0.21946 -0.98151,0.21946 -0.59807,0 -0.991157,-0.19052 -0.390674,-0.19051 -0.634243,-0.60289 -0.243569,-0.41238 -0.243569,-1.03215 z m 1.092442,0.005 q 0,0.53537 0.197749,0.76929 0.200161,0.23392 0.542604,0.23392 0.35209,0 0.545015,-0.2291 0.192926,-0.2291 0.192926,-0.82234 0,-0.4992 -0.202572,-0.7283 -0.20016,-0.23151 -0.545015,-0.23151 -0.330386,0 -0.530546,0.23392 -0.200161,0.23393 -0.200161,0.77412 z m 5.004013,0.75964 0.933279,0.10611 q -0.07717,0.2918 -0.253215,0.50643 -0.176045,0.21222 -0.450964,0.33039 -0.272508,0.11817 -0.694533,0.11817 -0.407556,0 -0.680063,-0.0748 -0.270096,-0.0772 -0.465434,-0.24598 -0.195337,-0.17122 -0.306269,-0.40032 -0.110933,-0.2291 -0.110933,-0.60772 0,-0.3955 0.135048,-0.65836 0.09887,-0.19292 0.270096,-0.34485 0.171222,-0.15434 0.35209,-0.2291 0.286977,-0.11817 0.735529,-0.11817 0.627009,0 0.954983,0.22428 0.330385,0.22427 0.463022,0.65594 l -0.923632,0.12299 q -0.04341,-0.16398 -0.159164,-0.24598 -0.113344,-0.0844 -0.30627,-0.0844 -0.243569,0 -0.395498,0.17604 -0.149517,0.17364 -0.149517,0.52814 0,0.31591 0.149517,0.4799 0.149518,0.16399 0.381029,0.16399 0.192926,0 0.323151,-0.0989 0.132636,-0.0989 0.197748,-0.30386 z m 2.568325,-2.53456 v 0.97428 h 0.540192 v 0.71623 h -0.540192 v 0.90917 q 0,0.16398 0.03135,0.21704 0.04823,0.082 0.16881,0.082 0.108521,0 0.303858,-0.0627 l 0.07235,0.67765 q -0.364148,0.0796 -0.680064,0.0796 -0.366559,0 -0.540192,-0.094 -0.173633,-0.094 -0.258038,-0.28456 -0.08199,-0.19293 -0.08199,-0.62219 v -0.90193 h -0.361736 v -0.71623 h 0.361736 v -0.47026 z"
       id="text3"
       aria-label="V/Oct" />
    <path
       style="font-weight:900;font-size:4.9389px;font-family:Arial;-inkscape-font-specification:'Arial, Heavy';fill:#ffffff;stroke:#000000;stroke-width:0.265"
       d="m 72.638869,107.55854 1.039387,-0.0651 q 0.03376,0.25322 0.13746,0.38585 0.16881,0.21463 0.482314,0.21463 0.233923,0 0.359325,-0.10852 0.127813,-0.11093 0.127813,-0.25562 0,-0.13746 -0.120579,-0.24598 -0.120578,-0.10852 -0.559484,-0.20499 -0.718649,-0.16157 -1.024919,-0.42926 -0.308681,-0.26768 -0.308681,-0.68247 0,-0.27251 0.156752,-0.51367 0.159164,-0.24357 0.47508,-0.38103 0.318328,-0.13987 0.870578,-0.13987 0.677651,0 1.032153,0.25322 0.356912,0.2508 0.424436,0.80064 l -1.029741,0.0603 q -0.041,-0.23875 -0.173633,-0.34727 -0.130225,-0.10852 -0.361736,-0.10852 -0.190514,0 -0.286977,0.082 -0.09646,0.0796 -0.09646,0.19533 0,0.0844 0.07958,0.15193 0.07717,0.0699 0.366559,0.13023 0.716237,0.15434 1.024918,0.3135 0.311093,0.15675 0.450964,0.39068 0.142283,0.23392 0.142283,0.52331 0,0.34003 -0.188103,0.62701 -0.188103,0.28697 -0.525723,0.43649 -0.33762,0.14711 -0.851285,0.14711 -0.901928,0 -1.249194,-0.34727 -0.347266,-0.34727 -0.393086,-0.88264 z m 3.72829,-2.36575 h 0.98151 v 0.66801 h -0.98151 z m 0,0.97428 h 0.98151 v 2.56109 h -0.98151 z m 1.608519,0 h 0.913986 v 0.4172 q 0.204984,-0.25563 0.41479,-0.36415 0.209807,-0.11093 0.511254,-0.11093 0.407555,0 0.636655,0.24357 0.231511,0.24116 0.231511,0.74759 v 1.62781 h -0.986333 v -1.40836 q 0,-0.24116 -0.08923,-0.34003 -0.08923,-0.10129 -0.250803,-0.10129 -0.178456,0 -0.289389,0.13505 -0.110932,0.13505 -0.110932,0.48473 v 1.2299 h -0.98151 z m 6.405137,-0.97428 h 3.320735 v 0.87299 h -1.114147 v 2.66238 h -1.092442 v -2.66238 h -1.114146 z m 3.547422,0.97428 h 0.918809 v 0.41961 q 0.132637,-0.27251 0.272508,-0.37379 0.142283,-0.1037 0.349678,-0.1037 0.217042,0 0.47508,0.13505 l -0.303858,0.69935 q -0.173633,-0.0723 -0.27492,-0.0723 -0.192925,0 -0.299034,0.15916 -0.15193,0.22428 -0.15193,0.83923 v 0.85852 h -0.986333 z m 2.218646,-0.97428 h 0.98151 v 0.66801 h -0.98151 z m 0,0.97428 h 0.98151 v 2.56109 h -0.98151 z m 4.777325,1.39147 1.039388,-0.0651 q 0.03376,0.25322 0.137459,0.38585 0.16881,0.21463 0.482315,0.21463 0.233922,0 0.359324,-0.10852 0.127813,-0.11093 0.127813,-0.25562 0,-0.13746 -0.120578,-0.24598 -0.120579,-0.10852 -0.559485,-0.20499 -0.718649,-0.16157 -1.024918,-0.42926 -0.308682,-0.26768 -0.308682,-0.68247 0,-0.27251 0.156753,-0.51367 0.159163,-0.24357 0.475079,-0.38103 0.318328,-0.13987 0.870578,-0.13987 0.677652,0 1.032156,0.25322 0.35691,0.2508 0.42443,0.80064 l -1.029738,0.0603 q -0.041,-0.23875 -0.173633,-0.34727 -0.130225,-0.10852 -0.361736,-0.10852 -0.190514,0 -0.286977,0.082 -0.09646,0.0796 -0.09646,0.19533 0,0.0844 0.07958,0.15193 0.07717,0.0699 0.366559,0.13023 0.716237,0.15434 1.024915,0.3135 0.3111,0.15675 0.45097,0.39068 0.14228,0.23392 0.14228,0.52331 0,0.34003 -0.1881,0.62701 -0.18811,0.28697 -0.525725,0.43649 -0.33762,0.14711 -0.851285,0.14711 -0.901928,0 -1.249195,-0.34727 -0.347266,-0.34727 -0.393086,-0.88264 z m 4.586812,-0.56189 -0.9381,-0.0989 q 0.053,-0.24598 0.15193,-0.38585 0.10128,-0.14228 0.28938,-0.24598 0.13505,-0.0748 0.37139,-0.11575 0.23633,-0.041 0.51125,-0.041 0.44132,0 0.709,0.0506 0.26769,0.0482 0.44614,0.20499 0.1254,0.10852 0.19775,0.30868 0.0724,0.19775 0.0724,0.37861 v 1.13103 q 0,0.18087 0.0217,0.28457 0.0241,0.10128 0.10129,0.26045 h -0.92122 q -0.0555,-0.0989 -0.0724,-0.14952 -0.0169,-0.0531 -0.0338,-0.16399 -0.19293,0.18569 -0.38344,0.26528 -0.26045,0.1061 -0.60531,0.1061 -0.4582,0 -0.69694,-0.21221 -0.23634,-0.21222 -0.23634,-0.52331 0,-0.29181 0.17123,-0.47991 0.17122,-0.1881 0.63183,-0.27974 0.55225,-0.11093 0.71624,-0.15434 0.16398,-0.0458 0.34726,-0.11817 0,-0.18087 -0.0748,-0.25321 -0.0748,-0.0724 -0.26286,-0.0724 -0.24116,0 -0.36174,0.0772 -0.0941,0.0603 -0.15193,0.22669 z m 0.85128,0.51607 q -0.20257,0.0724 -0.42202,0.12782 -0.29904,0.0796 -0.37862,0.15675 -0.082,0.0796 -0.082,0.18087 0,0.11575 0.0796,0.19051 0.082,0.0724 0.23875,0.0724 0.16398,0 0.30385,-0.0796 0.14229,-0.0796 0.20016,-0.19293 0.0603,-0.11575 0.0603,-0.29903 z m 1.25884,-1.34565 h 0.95016 l 0.41238,1.61334 0.5209,-1.61334 h 0.88505 l 0.54019,1.61334 0.41238,-1.61334 h 0.94293 l -0.94293,2.56109 h -0.87299 l -0.51849,-1.541 -0.5016,1.541 h -0.87782 z m 8.11977,1.39147 1.03939,-0.0651 q 0.0338,0.25322 0.13745,0.38585 0.16881,0.21463 0.48232,0.21463 0.23392,0 0.35932,-0.10852 0.12782,-0.11093 0.12782,-0.25562 0,-0.13746 -0.12058,-0.24598 -0.12058,-0.10852 -0.55949,-0.20499 -0.71865,-0.16157 -1.02491,-0.42926 -0.30869,-0.26768 -0.30869,-0.68247 0,-0.27251 0.15676,-0.51367 0.15916,-0.24357 0.47508,-0.38103 0.31832,-0.13987 0.87057,-0.13987 0.67766,0 1.03216,0.25322 0.35691,0.2508 0.42443,0.80064 l -1.02974,0.0603 q -0.041,-0.23875 -0.17363,-0.34727 -0.13023,-0.10852 -0.36174,-0.10852 -0.19051,0 -0.28697,0.082 -0.0965,0.0796 -0.0965,0.19533 0,0.0844 0.0796,0.15193 0.0772,0.0699 0.36655,0.13023 0.71624,0.15434 1.02492,0.3135 0.3111,0.15675 0.45097,0.39068 0.14228,0.23392 0.14228,0.52331 0,0.34003 -0.1881,0.62701 -0.18811,0.28697 -0.52573,0.43649 -0.33762,0.14711 -0.85128,0.14711 -0.90193,0 -1.2492,-0.34727 -0.34726,-0.34727 -0.39308,-0.88264 z m 6.38825,2.14389 h -0.99115 v -1.22266 q -0.1447,0.15192 -0.3328,0.22909 -0.18569,0.0772 -0.41479,0.0772 -0.46785,0 -0.77412,-0.3352 -0.30627,-0.33762 -0.30627,-0.96463 0,-0.41962 0.13988,-0.74036 0.13987,-0.32073 0.38826,-0.47749 0.24839,-0.15916 0.54743,-0.15916 0.25803,0 0.47508,0.11334 0.15916,0.0844 0.34967,0.32315 v -0.37861 h 0.91881 z m -0.98392,-2.24758 q 0,-0.33039 -0.1254,-0.47749 -0.12299,-0.14711 -0.31351,-0.14711 -0.17604,0 -0.29662,0.14711 -0.11817,0.14469 -0.11817,0.48713 0,0.30627 0.11576,0.44856 0.11817,0.13987 0.28698,0.13987 0.19775,0 0.32315,-0.14711 0.12781,-0.14711 0.12781,-0.45096 z m 1.59164,-1.28778 h 0.91881 v 0.41961 q 0.13263,-0.27251 0.27251,-0.37379 0.14228,-0.1037 0.34967,-0.1037 0.21705,0 0.47508,0.13505 l -0.30385,0.69935 q -0.17364,-0.0723 -0.27492,-0.0723 -0.19293,0 -0.29904,0.15916 -0.15193,0.22428 -0.15193,0.83923 v 0.85852 h -0.98633 z"
       id="text4"
       aria-label="Sin  Tri  Saw  Sqr" />
    <path
       style="font-weight:900;font-size:4.9389px;font-family:Arial;-inkscape-font-specification:'Arial, Heavy';fill:#1a1a1a;stroke:#ffffff;stroke-width:0.265"
       d="m 51.047217,120.0148 h 1.143085 l 0.795819,2.54421 0.783761,-2.54421 h 1.109323 l -1.311895,3.53536 h -1.184082 z m 4.03456,0 h 0.979098 v 0.5836 l -0.15434,0.71624 h -0.665594 l -0.159164,-0.71624 z m 1.290191,2.82636 0.974275,-0.0916 q 0.06029,0.17363 0.16881,0.24839 0.108521,0.0748 0.289389,0.0748 0.197749,0 0.30627,-0.0844 0.0844,-0.0627 0.0844,-0.15676 0,-0.1061 -0.110933,-0.16398 -0.07958,-0.041 -0.422025,-0.10129 -0.511253,-0.0892 -0.711414,-0.16399 -0.197749,-0.0772 -0.335208,-0.25803 -0.135048,-0.18087 -0.135048,-0.41238 0,-0.25322 0.147106,-0.4365 0.147106,-0.18328 0.405144,-0.2725 0.258038,-0.0916 0.692121,-0.0916 0.458199,0 0.67524,0.0699 0.219453,0.0699 0.364148,0.21704 0.147106,0.14711 0.243569,0.39791 l -0.930867,0.0916 q -0.03617,-0.12299 -0.120579,-0.18087 -0.115755,-0.0772 -0.279742,-0.0772 -0.166399,0 -0.243569,0.0603 -0.07476,0.0579 -0.07476,0.14229 0,0.094 0.09646,0.14228 0.09646,0.0482 0.419614,0.0868 0.489549,0.0555 0.728294,0.15434 0.238746,0.0989 0.364148,0.28215 0.127813,0.18328 0.127813,0.40273 0,0.22187 -0.135048,0.43167 -0.132636,0.20981 -0.422025,0.33521 -0.286977,0.12299 -0.783761,0.12299 -0.701768,0 -1.000803,-0.20016 -0.296623,-0.20016 -0.381028,-0.56913 z m 4.538579,-2.82636 h 1.036976 l 0.373794,1.97508 0.545015,-1.97508 h 1.034565 l 0.547427,1.97508 0.373793,-1.97508 h 1.032153 l -0.778937,3.53536 h -1.070739 l -0.619774,-2.22588 -0.617362,2.22588 H 61.69672 Z m 4.989543,2.26205 q 0,-0.58601 0.395498,-0.96463 0.395498,-0.38102 1.068327,-0.38102 0.769291,0 1.162377,0.44614 0.315916,0.35932 0.315916,0.88504 0,0.59084 -0.393086,0.96946 -0.390675,0.3762 -1.082796,0.3762 -0.617362,0 -0.998391,-0.3135 -0.467845,-0.38827 -0.467845,-1.01769 z m 0.983922,-0.002 q 0,0.34244 0.137459,0.50643 0.139872,0.16399 0.349678,0.16399 0.212219,0 0.347267,-0.16158 0.137459,-0.16157 0.137459,-0.51848 0,-0.3328 -0.137459,-0.49438 -0.13746,-0.16398 -0.340032,-0.16398 -0.21463,0 -0.354501,0.16639 -0.139871,0.16399 -0.139871,0.50161 z m 2.440512,-1.28537 h 0.918809 v 0.41962 q 0.132636,-0.27251 0.272507,-0.3738 0.142283,-0.10369 0.349678,-0.10369 0.217042,0 0.47508,0.13504 l -0.303858,0.69936 q -0.173633,-0.0724 -0.274919,-0.0724 -0.192926,0 -0.299035,0.15917 -0.151929,0.22427 -0.151929,0.83922 v 0.85852 h -0.986333 z m 2.380221,-0.97427 h 0.983922 v 3.53536 h -0.983922 z m 4.307067,0 v 3.53536 h -0.918809 v -0.37861 q -0.192925,0.24115 -0.352089,0.32556 -0.212219,0.11093 -0.472668,0.11093 -0.523311,0 -0.800642,-0.39791 -0.27492,-0.39791 -0.27492,-0.96704 0,-0.63665 0.303859,-0.97427 0.306269,-0.33762 0.776526,-0.33762 0.229099,0 0.41479,0.0772 0.188103,0.0772 0.332797,0.23151 v -1.22508 z m -0.983921,2.24758 q 0,-0.30144 -0.127813,-0.44855 -0.127814,-0.14952 -0.323151,-0.14952 -0.171222,0 -0.286977,0.14229 -0.115756,0.14228 -0.115756,0.47749 0,0.3135 0.118167,0.46061 0.120579,0.14469 0.296624,0.14469 0.188102,0 0.313504,-0.1471 0.125402,-0.14711 0.125402,-0.47991 z"
       id="text5"
       aria-label="V's World" />
    <path
       style="font-weight:900;font-size:4.9389px;font-family:Arial;-inkscape-font-specification:'Arial, Heavy';stroke:#ffffff;stroke-width:0.265"
       d="m 27.132501,107.55854 1.039387,-0.0651 q 0.03376,0.25322 0.13746,0.38585 0.16881,0.21463 0.482314,0.21463 0.233923,0 0.359325,-0.10852 0.127813,-0.11093 0.127813,-0.25562 0,-0.13746 -0.120579,-0.24598 -0.120578,-0.10852 -0.559485,-0.20499 -0.718648,-0.16157 -1.024918,-0.42926 -0.308681,-0.26768 -0.308681,-0.68247 0,-0.27251 0.156752,-0.51367 0.159164,-0.24357 0.47508,-0.38103 0.318327,-0.13987 0.870578,-0.13987 0.677651,0 1.032152,0.25322 0.356913,0.2508 0.424437,0.80064 l -1.029741,0.0603 q -0.041,-0.23875 -0.173633,-0.34727 -0.130225,-0.10852 -0.361736,-0.10852 -0.190514,0 -0.286977,0.082 -0.09646,0.0796 -0.09646,0.19533 0,0.0844 0.07958,0.15193 0.07717,0.0699 0.366559,0.13023 0.716237,0.15434 1.024918,0.3135 0.311093,0.15675 0.450964,0.39068 0.142283,0.23392 0.142283,0.52331 0,0.34003 -0.188103,0.62701 -0.188103,0.28697 -0.525723,0.43649 -0.33762,0.14711 -0.851285,0.14711 -0.901928,0 -1.249194,-0.34727 -0.347267,-0.34727 -0.393086,-0.88264 z m 3.407551,-1.39147 h 1.036976 l 0.528135,1.70498 0.489549,-1.70498 h 0.96704 l -1.015272,2.73713 q -0.173633,0.46785 -0.354501,0.63183 -0.255626,0.23151 -0.778938,0.23151 -0.212218,0 -0.655947,-0.0579 l -0.07717,-0.68489 q 0.212219,0.0675 0.472669,0.0675 0.173633,0 0.279742,-0.0796 0.108521,-0.0796 0.183279,-0.28456 z m 3.301443,0 h 0.913986 v 0.4172 q 0.204983,-0.25563 0.41479,-0.36415 0.209807,-0.11093 0.511253,-0.11093 0.407556,0 0.636655,0.24357 0.231511,0.24116 0.231511,0.74759 v 1.62781 h -0.986333 v -1.40836 q 0,-0.24116 -0.08923,-0.34003 -0.08923,-0.10129 -0.250803,-0.10129 -0.178457,0 -0.289389,0.13505 -0.110932,0.13505 -0.110932,0.48473 v 1.2299 h -0.98151 z m 5.204173,1.56028 0.933278,0.10611 q -0.07717,0.2918 -0.253215,0.50643 -0.176045,0.21222 -0.450964,0.33039 -0.272508,0.11817 -0.694533,0.11817 -0.407556,0 -0.680063,-0.0748 -0.270096,-0.0772 -0.465434,-0.24598 -0.195337,-0.17122 -0.306269,-0.40032 -0.110933,-0.2291 -0.110933,-0.60772 0,-0.3955 0.135048,-0.65836 0.09887,-0.19292 0.270096,-0.34485 0.171222,-0.15434 0.35209,-0.2291 0.286977,-0.11817 0.735529,-0.11817 0.627009,0 0.954983,0.22428 0.330385,0.22427 0.463022,0.65594 l -0.923632,0.12299 q -0.04341,-0.16398 -0.159164,-0.24598 -0.113344,-0.0844 -0.30627,-0.0844 -0.243568,0 -0.395498,0.17604 -0.149517,0.17364 -0.149517,0.52814 0,0.31591 0.149517,0.4799 0.149518,0.16399 0.381029,0.16399 0.192926,0 0.323151,-0.0989 0.132636,-0.0989 0.197749,-0.30386 z"
       id="text7"
       aria-label="Sync" />
    <path
       style="font-weight:900;font-size:4.9389px;font-family:Arial;-inkscape-font-specification:'Arial, Heavy';stroke:#ffffff;stroke-width:0.265"
       d="M 15.446441,48.728154 H 12.4995 q 0.05064,-0.436494 0.30627,-0.819934 0.258038,-0.385852 0.964629,-0.909163 0.431671,-0.320739 0.55225,-0.487138 0.120578,-0.166398 0.120578,-0.315916 0,-0.161575 -0.120578,-0.274919 -0.118167,-0.115755 -0.299035,-0.115755 -0.188103,0 -0.308682,0.118167 -0.118167,0.118167 -0.159163,0.417202 l -0.983922,-0.07958 q 0.05788,-0.414791 0.212219,-0.646302 0.15434,-0.233922 0.434083,-0.356912 0.282153,-0.125402 0.778937,-0.125402 0.518488,0 0.805466,0.118167 0.289388,0.118167 0.453375,0.364147 0.166399,0.243569 0.166399,0.547427 0,0.323151 -0.190515,0.617363 -0.188102,0.294212 -0.687298,0.646301 -0.296623,0.204984 -0.397909,0.286977 -0.09887,0.08199 -0.233923,0.21463 h 1.53376 z"
       id="text18"
       inkscape:label="T2"
       aria-label="2" />
    <path
       style="font-weight:900;font-size:4.9389px;font-family:Arial;-inkscape-font-specification:'Arial, Heavy';stroke:#ffffff;stroke-width:0.265"
       d="m 27.482009,46.215296 -0.928455,-0.166399 q 0.115755,-0.443729 0.443729,-0.680063 0.330386,-0.236334 0.933279,-0.236334 0.692121,0 1.000802,0.258038 0.308681,0.258038 0.308681,0.648713 0,0.2291 -0.125401,0.414791 -0.125402,0.185691 -0.378617,0.325562 0.204983,0.05064 0.313504,0.118167 0.176045,0.108521 0.272508,0.286977 0.09887,0.176045 0.09887,0.422025 0,0.308681 -0.161575,0.593247 -0.161575,0.282154 -0.465433,0.436494 -0.303859,0.15193 -0.798231,0.15193 -0.482314,0 -0.762057,-0.113344 -0.27733,-0.113344 -0.458198,-0.330386 -0.178457,-0.219453 -0.27492,-0.549838 l 0.98151,-0.130225 q 0.05788,0.296623 0.178457,0.412379 0.12299,0.113344 0.311092,0.113344 0.197749,0 0.327974,-0.144695 0.132637,-0.144694 0.132637,-0.385851 0,-0.245981 -0.127814,-0.381029 -0.125401,-0.135048 -0.342443,-0.135048 -0.115755,0 -0.318327,0.05788 l 0.05064,-0.701768 q 0.08199,0.01206 0.127813,0.01206 0.192926,0 0.320739,-0.12299 0.130225,-0.12299 0.130225,-0.2918 0,-0.161575 -0.09646,-0.258038 -0.09646,-0.09646 -0.265273,-0.09646 -0.173633,0 -0.282154,0.106109 -0.108521,0.103698 -0.147106,0.366559 z"
       id="text11"
       inkscape:label="T3"
       aria-label="3" />
    <path
       style="font-weight:900;font-size:4.9389px;font-family:Arial;-inkscape-font-specification:'Arial, Heavy';stroke:#ffffff;stroke-width:0.265"
       d="m 40.839407,45.132502 h 2.331991 v 0.783761 h -1.57958 l -0.08441,0.530546 q 0.163987,-0.07717 0.323151,-0.115756 0.161575,-0.03858 0.318327,-0.03858 0.530546,0 0.860931,0.320739 0.330386,0.320739 0.330386,0.807877 0,0.342443 -0.171222,0.658359 -0.16881,0.315916 -0.482314,0.482315 -0.311093,0.166398 -0.798231,0.166398 -0.349678,0 -0.600481,-0.06511 -0.248392,-0.06752 -0.424437,-0.197749 -0.173633,-0.132637 -0.282154,-0.299035 -0.108521,-0.166399 -0.180868,-0.414791 l 0.993568,-0.10852 q 0.03617,0.238745 0.16881,0.364147 0.132637,0.12299 0.315916,0.12299 0.204984,0 0.33762,-0.15434 0.135048,-0.156753 0.135048,-0.465434 0,-0.315916 -0.135048,-0.463022 -0.135048,-0.147106 -0.359324,-0.147106 -0.142283,0 -0.274919,0.06994 -0.09887,0.05064 -0.217042,0.183279 l -0.83681,-0.120589 z"
       id="text12"
       inkscape:label="T5"
       aria-label="5" />
    <path
       style="font-weight:900;font-size:4.9389px;font-family:Arial;-inkscape-font-specification:'Arial, Heavy';stroke:#ffffff;stroke-width:0.265"
       d="m 54.500501,45.132502 h 2.867359 v 0.663182 q -0.373793,0.33762 -0.624597,0.730707 -0.303858,0.477491 -0.479903,1.063503 -0.139871,0.455787 -0.188102,1.077973 h -0.979099 q 0.115756,-0.865755 0.364148,-1.451767 0.248392,-0.586012 0.786172,-1.254017 h -1.745978 z"
       id="text13"
       inkscape:label="T7"
       aria-label="7" />
    <path
       style="font-weight:900;font-size:4.9389px;font-family:Arial;-inkscape-font-specification:'Arial, Heavy';stroke:#ffffff;stroke-width:0.265"
       d="m 69.526224,45.1325 v 3.595654 h -0.993568 v -2.356106 q -0.241157,0.18328 -0.467845,0.296624 -0.224276,0.113343 -0.564308,0.217041 v -0.805465 q 0.501607,-0.161575 0.778938,-0.388263 0.277331,-0.226688 0.434083,-0.559485 z m 3.294208,0 v 3.595654 h -0.993568 v -2.356106 q -0.241157,0.18328 -0.467845,0.296624 -0.224276,0.113343 -0.564308,0.217041 v -0.805465 q 0.501607,-0.161575 0.778938,-0.388263 0.277331,-0.226688 0.434083,-0.559485 z"
       id="text14"
       inkscape:label="T11"
       aria-label="11" />
    <path
       style="font-weight:900;font-size:4.9389px;font-family:Arial;-inkscape-font-specification:'Arial, Heavy';stroke:#ffffff;stroke-width:0.265"
       d="m 83.526224,45.1325 v 3.595654 h -0.993568 v -2.356106 q -0.241157,0.18328 -0.467845,0.296624 -0.224276,0.113343 -0.564308,0.217041 v -0.805465 q 0.501607,-0.161575 0.778938,-0.388263 0.277331,-0.226688 0.434083,-0.559485 z m 2.020898,1.082796 -0.928456,-0.166399 q 0.115756,-0.443729 0.44373,-0.680063 0.330385,-0.236334 0.933278,-0.236334 0.692121,0 1.000803,0.258038 0.308681,0.258038 0.308681,0.648713 0,0.2291 -0.125402,0.414791 -0.125402,0.185691 -0.378617,0.325562 0.204984,0.05064 0.313505,0.118167 0.176044,0.108521 0.272507,0.286977 0.09887,0.176045 0.09887,0.422025 0,0.308681 -0.161576,0.593247 -0.161575,0.282154 -0.465433,0.436494 -0.303858,0.15193 -0.79823,0.15193 -0.482315,0 -0.762057,-0.113344 -0.277331,-0.113344 -0.458199,-0.330386 -0.178456,-0.219453 -0.274919,-0.549838 l 0.98151,-0.130225 q 0.05788,0.296623 0.178456,0.412379 0.12299,0.113344 0.311093,0.113344 0.197749,0 0.327974,-0.144695 0.132636,-0.144694 0.132636,-0.385851 0,-0.245981 -0.127813,-0.381029 -0.125402,-0.135048 -0.342444,-0.135048 -0.115755,0 -0.318327,0.05788 l 0.05064,-0.701768 q 0.08199,0.01206 0.127813,0.01206 0.192926,0 0.320739,-0.12299 0.130225,-0.12299 0.130225,-0.2918 0,-0.161575 -0.09646,-0.258038 -0.09646,-0.09646 -0.265273,-0.09646 -0.173633,0 -0.282153,0.106109 -0.108521,0.103698 -0.147106,0.366559 z"
       id="text15"
       inkscape:label="T13"
       aria-label="13" />
    <path
       style="font-weight:900;font-size:4.9389px;font-family:Arial;-inkscape-font-specification:'Arial, Heavy';stroke:#ffffff;stroke-width:0.265"
       d="m 97.426218,45.1325 v 3.595654 H 96.43265 v -2.356106 q -0.241157,0.18328 -0.467845,0.296624 -0.224276,0.113343 -0.564308,0.217041 v -0.805465 q 0.501607,-0.161575 0.778938,-0.388263 0.277331,-0.226688 0.434083,-0.559485 z m 1.085207,0.06029 h 2.867355 v 0.663183 q -0.37379,0.33762 -0.62459,0.730706 -0.30386,0.477491 -0.47991,1.063503 -0.13987,0.455788 -0.1881,1.077973 h -0.979096 q 0.115755,-0.865754 0.364147,-1.451766 0.248392,-0.586012 0.786169,-1.254018 h -1.745975 z"
       id="text16"
       inkscape:label="T17"
       aria-label="17" />
    <path
       style="font-weight:900;font-size:4.9389px;font-family:Arial;-inkscape-font-specification:'Arial, Heavy';stroke:#ffffff;stroke-width:0.265"
       d="m 111.52522,45.1325 v 3.595654 h -0.99357 v -2.356106 q -0.24116,0.18328 -0.46785,0.296624 -0.22427,0.113343 -0.5643,0.217041 v -0.805465 q 0.5016,-0.161575 0.77893,-0.388263 0.27733,-0.226688 0.43409,-0.559485 z m 1.11173,2.802247 0.97669,-0.12299 q 0.0386,0.204983 0.13022,0.289388 0.0916,0.08441 0.22428,0.08441 0.23633,0 0.36897,-0.238745 0.0965,-0.176045 0.14469,-0.745176 -0.17604,0.180868 -0.36173,0.265273 -0.18569,0.0844 -0.42926,0.0844 -0.47508,0 -0.80305,-0.33762 -0.32557,-0.33762 -0.32557,-0.853697 0,-0.352089 0.1664,-0.641478 0.1664,-0.289389 0.4582,-0.436495 0.2918,-0.149517 0.73312,-0.149517 0.53054,0 0.85128,0.183279 0.32074,0.180868 0.51126,0.578778 0.19292,0.395498 0.19292,1.046622 0,0.957394 -0.40273,1.403535 -0.40273,0.44373 -1.11656,0.44373 -0.42202,0 -0.66559,-0.09646 -0.24357,-0.09887 -0.40515,-0.286977 -0.16157,-0.188103 -0.24839,-0.470257 z m 1.80868,-1.577168 q 0,-0.286977 -0.14469,-0.448553 -0.1447,-0.163987 -0.35209,-0.163987 -0.19534,0 -0.32557,0.147106 -0.12781,0.147106 -0.12781,0.441318 0,0.296623 0.13264,0.453376 0.13505,0.156752 0.33521,0.156752 0.20739,0 0.34485,-0.151929 0.13746,-0.151929 0.13746,-0.434083 z"
       id="text17"
       inkscape:label="T19"
       aria-label="19" />
    <g
       sodipodi:type="inkscape:box3d"
       id="g132"
       style="fill:#b3b3b3;stroke:#000000;stroke-width:1.00157"
       inkscape:perspectiveID="#perspective79"
       inkscape:corner0="0.22240162 : -0.011513951 : 0 : 1"
       inkscape:corner7="0.031992583 : -0.031688716 : 0.19360104 : 1">
      <path
         sodipodi:type="inkscape:box3dside"
         id="path137"
         style="fill:#ffffff;fill-rule:evenodd;stroke:none;stroke-linejoin:round"
         inkscape:box3dsidetype="11"
         d="m 81.974556,120.23408 1.388059,0.34108 v 1.55397 l -1.388059,-0.55004 z"
         points="83.362615,120.57516 83.362615,122.12913 81.974556,121.57909 81.974556,120.23408 " />
      <path
         sodipodi:type="inkscape:box3dside"
         id="path132"
         style="fill:#ffffff;fill-rule:evenodd;stroke:none;stroke-linejoin:round"
         inkscape:box3dsidetype="6"
         d="m 80.500785,120.58178 v 1.55803 l 1.473771,-0.56072 v -1.34501 z"
         points="80.500785,122.13981 81.974556,121.57909 81.974556,120.23408 80.500785,120.58178 " />
      <path
         sodipodi:type="inkscape:box3dside"
         id="path136"
         style="fill:#ffffff;fill-rule:evenodd;stroke:none;stroke-linejoin:round"
         inkscape:box3dsidetype="13"
         d="m 80.500785,122.13981 1.376539,0.75669 1.485291,-0.76737 -1.388059,-0.55004 z"
         points="81.877324,122.8965 83.362615,122.12913 81.974556,121.57909 80.500785,122.13981 " />
      <path
         sodipodi:type="inkscape:box3dside"
         id="path133"
         style="fill:#000000;fill-rule:evenodd;stroke:none;stroke-linejoin:round"
         inkscape:box3dsidetype="5"
         d="m 80.500785,120.58178 1.376539,0.46922 1.485291,-0.47584 -1.388059,-0.34108 z"
         points="81.877324,121.051 83.362615,120.57516 81.974556,120.23408 80.500785,120.58178 " />
      <path
         sodipodi:type="inkscape:box3dside"
         id="path135"
         style="fill:#b3b3b3"
         inkscape:box3dsidetype="14"
         d="m 81.877324,121.051 v 1.8455 l 1.485291,-0.76737 v -1.55397 z"
         points="81.877324,122.8965 83.362615,122.12913 83.362615,120.57516 81.877324,121.051 " />
      <path
         sodipodi:type="inkscape:box3dside"
         id="path134"
         style="fill:#ffffff"
         inkscape:box3dsidetype="3"
         d="m 80.500785,120.58178 1.376539,0.46922 v 1.8455 l -1.376539,-0.75669 z"
         points="81.877324,121.051 81.877324,122.8965 80.500785,122.13981 80.500785,120.58178 " />
    </g>
  </g>
  <g
     inkscape:groupmode="layer"
     id="layer3"
     inkscape:label="components">
    <circle
       style="fill:#00ff00;stroke:#00ff00;stroke-width:0.264999"
       id="path7"
       cx="12.649768"
       cy="97.1325"
       r="2"
       inkscape:label="VOct" />
    <circle
       style="fill:#00ff00;stroke:#00ff00;stroke-width:0.264999"
       id="path8"
       cx="32.545521"
       cy="97.1325"
       r="2"
       inkscape:label="Sync" />
    <circle
       style="fill:#0000ff;stroke:#0000ff;stroke-width:0.264999"
       id="path9"
       cx="76.1325"
       cy="97.1325"
       r="2"
       inkscape:label="Sin" />
    <circle
       style="fill:#0000ff;stroke:#0000ff;stroke-width:0.264999"
       id="path10"
       cx="88.6325"
       cy="97.1325"
       r="2"
       inkscape:label="Tri" />
    <circle
       style="fill:#0000ff;stroke:#0000ff;stroke-width:0.264999"
       id="path11"
       cx="101.6325"
       cy="97.1325"
       r="2"
       inkscape:label="Saw" />
    <circle
       style="fill:#0000ff;stroke:#0000ff;stroke-width:0.264999"
       id="path12"
       cx="114.6325"
       cy="97.1325"
       r="2"
       inkscape:label="Sqr" />
  </g>
</svg>
