<?xml version="1.0" encoding="UTF-8" standalone="no"?>
<!-- Created with Inkscape (http://www.inkscape.org/) -->

<svg
   width="127mm"
   height="128.5mm"
   viewBox="0 0 127 128.5"
   version="1.1"
   id="svg1"
   inkscape:version="1.3.2 (091e20e, 2023-11-25, custom)"
   sodipodi:docname="XLimitJIAutotuner-dark.svg"
   xmlns:inkscape="http://www.inkscape.org/namespaces/inkscape"
   xmlns:sodipodi="http://sodipodi.sourceforge.net/DTD/sodipodi-0.dtd"
   xmlns="http://www.w3.org/2000/svg"
   xmlns:svg="http://www.w3.org/2000/svg">
  <sodipodi:namedview
     id="namedview1"
     pagecolor="#ffffff"
     bordercolor="#000000"
     borderopacity="0.25"
     inkscape:showpageshadow="2"
     inkscape:pageopacity="0.0"
     inkscape:pagecheckerboard="0"
     inkscape:deskcolor="#d1d1d1"
     inkscape:document-units="mm"
     inkscape:zoom="1.4142136"
     inkscape:cx="208.5965"
     inkscape:cy="293.80287"
     inkscape:window-width="1920"
     inkscape:window-height="1111"
     inkscape:window-x="-9"
     inkscape:window-y="-9"
     inkscape:window-maximized="1"
     inkscape:current-layer="layer2"
     showguides="false" />
  <defs
     id="defs1">
    <inkscape:perspective
       sodipodi:type="inkscape:persp3d"
       inkscape:vp_x="-18.676483 : 64.58135 : 1"
       inkscape:vp_y="0 : 989.48038 : 0"
       inkscape:vp_z="149.89702 : 64.58135 : 1"
       inkscape:persp3d-origin="65.61027 : 43.389978 : 1"
       id="perspective79" />
    <inkscape:perspective
       sodipodi:type="inkscape:persp3d"
       inkscape:vp_x="72.806891 : 10.478699 : 1"
       inkscape:vp_y="0 : 94.829717 : 0"
       inkscape:vp_z="91.616949 : 10.478699 : 1"
       inkscape:persp3d-origin="82.211919 : 8.4477607 : 1"
       id="perspective79-5" />
  </defs>
  <g
     inkscape:groupmode="layer"
     id="layer2"
     inkscape:label="Background">
    <rect
       style="fill:#110019;stroke:#ffffff;stroke-width:0.264999;fill-opacity:1"
       id="rect2"
       width="136.32275"
       height="147.86719"
       x="-2.512325"
       y="-6.2911005" />
    <rect
       style="fill:#333333;stroke:#ffaa00;stroke-width:0.168402;stroke-opacity:1"
       id="rect6"
       width="19.831598"
       height="26.831598"
       x="100.0842"
       y="85.675362"
       rx="1.9997008"
       ry="2.07271" />
    <rect
       style="fill:#333333;stroke:#ffaa00;stroke-width:0.168402;stroke-opacity:1"
       id="rect6-6"
       width="19.831598"
       height="26.831598"
       x="100.0842"
       y="58.084202"
       rx="1.9997008"
       ry="2.07271" />
    <rect
       style="fill:#000000;stroke:#aa00ff;stroke-width:0.299054;stroke-opacity:1"
       id="rect5"
       width="119.70094"
       height="7.8259945"
       x="4.1495271"
       y="20.149527" />
    <rect
       style="fill:#ffaa00;stroke:#110019;stroke-width:0.264999;fill-opacity:1;stroke-opacity:1"
       id="rect3-7"
       width="106.54959"
       height="3.0333066"
       x="-137.49916"
       y="39.699585"
       transform="rotate(-42.378706)" />
    <rect
       style="fill:#ffaa00;stroke:#110019;stroke-width:0.264999;fill-opacity:1;stroke-opacity:1"
       id="rect3-3"
       width="106.54959"
       height="3.0333066"
       x="-147.60959"
       y="50.780163"
       transform="rotate(-42.378706)" />
    <rect
       style="fill:#ffaa00;stroke:#110019;stroke-width:0.264999;fill-opacity:1;stroke-opacity:1"
       id="rect3-30"
       width="106.54959"
       height="3.0333066"
       x="-157.72"
       y="61.86076"
       transform="rotate(-42.378706)" />
    <rect
       style="fill:#ffaa00;stroke:#110019;stroke-width:0.264999;fill-opacity:1;stroke-opacity:1"
       id="rect3"
       width="106.54959"
       height="3.0333066"
       x="-61.805588"
       y="5.7020454"
       transform="rotate(-42.378706)" />
    <g
       id="g132"
       style="fill:#ffffff;stroke:#000000;stroke-width:1.00157"
       transform="translate(-4.37,0.94761929)"
       inkscape:label="VsWorldLogo">
      <rect
         style="fill:#333333;stroke:#000000;stroke-width:0.430126"
         id="rect4-1"
         width="5.2779541"
         height="4.8451529"
         x="37.387913"
         y="116.38544"
         rx="1.2037843"
         transform="translate(42.004,2.8820067)" />
      <path
         d="m 82.020627,120.22667 1.431452,0.34262 v 1.56102 l -1.431452,-0.55254 z"
         style="fill:#000000;fill-rule:evenodd;stroke:#000000;stroke-linejoin:round"
         id="path4-1" />
      <path
         d="m 80.500785,120.57595 v 1.56509 l 1.519842,-0.56327 v -1.3511 z"
         style="fill:#000000;fill-rule:evenodd;stroke:#333333;stroke-width:1.10182;stroke-linejoin:round"
         id="path5-9" />
      <path
         d="m 80.500785,122.14104 1.419571,0.76011 1.531723,-0.77084 -1.431452,-0.55254 z"
         style="fill:#000000;fill-rule:evenodd;stroke:#000000;stroke-linejoin:round"
         id="path6" />
      <path
         d="m 80.500785,120.57595 1.419571,0.47134 1.531723,-0.478 -1.431452,-0.34262 z"
         style="fill:#ffffff;fill-rule:evenodd;stroke:#000000;stroke-linejoin:round"
         id="path8-7" />
      <path
         d="m 81.920356,121.04729 v 1.85386 l 1.531723,-0.77084 v -1.56102 z"
         style="fill:#aa00ff;fill-opacity:1;stroke:#000000"
         id="path9-3" />
      <path
         d="m 80.500785,120.57595 1.419571,0.47134 v 1.85386 l -1.419571,-0.76011 z"
         style="fill:#ffaa00;fill-opacity:1;stroke:#000000"
         id="path10-8" />
      <path
         style="font-weight:900;font-size:4.9389px;font-family:Arial;-inkscape-font-specification:'Arial, Heavy';fill:#ffffff;stroke:#000000;stroke-width:0.265;stroke-opacity:1"
         d="m 6.0467171,117.1325 h 1.143085 l 0.7958192,2.54421 0.783761,-2.54421 h 1.109323 l -1.311895,3.53536 H 7.3827281 Z m 4.0345599,0 h 0.979098 v 0.5836 l -0.15434,0.71624 h -0.665594 l -0.159164,-0.71624 z m 1.290191,2.82636 0.974275,-0.0916 q 0.06029,0.17363 0.16881,0.24839 0.108521,0.0748 0.289389,0.0748 0.197749,0 0.30627,-0.0844 0.0844,-0.0627 0.0844,-0.15676 0,-0.1061 -0.110933,-0.16398 -0.07958,-0.041 -0.422025,-0.10129 -0.511253,-0.0892 -0.711414,-0.16399 -0.197749,-0.0772 -0.335208,-0.25803 -0.135048,-0.18087 -0.135048,-0.41238 0,-0.25322 0.147106,-0.4365 0.147106,-0.18328 0.405144,-0.2725 0.258038,-0.0916 0.692121,-0.0916 0.458199,0 0.67524,0.0699 0.219453,0.0699 0.364148,0.21704 0.147106,0.14711 0.243569,0.39791 l -0.930867,0.0916 q -0.03617,-0.12299 -0.120579,-0.18087 -0.115755,-0.0772 -0.279742,-0.0772 -0.166399,0 -0.243569,0.0603 -0.07476,0.0579 -0.07476,0.14229 0,0.094 0.09646,0.14228 0.09646,0.0482 0.419614,0.0868 0.489549,0.0555 0.728294,0.15434 0.238746,0.0989 0.364148,0.28215 0.127813,0.18328 0.127813,0.40273 0,0.22187 -0.135048,0.43167 -0.132636,0.20981 -0.422025,0.33521 -0.286977,0.12299 -0.783761,0.12299 -0.701768,0 -1.000803,-0.20016 -0.296623,-0.20016 -0.381028,-0.56913 z m 4.538579,-2.82636 h 1.036976 l 0.373794,1.97508 0.545015,-1.97508 h 1.034565 l 0.547427,1.97508 0.373793,-1.97508 h 1.032153 l -0.778937,3.53536 h -1.070739 l -0.619774,-2.22588 -0.617362,2.22588 H 16.69622 Z m 4.989543,2.26205 q 0,-0.58601 0.395498,-0.96463 0.395498,-0.38102 1.068327,-0.38102 0.769291,0 1.162377,0.44614 0.315916,0.35932 0.315916,0.88504 0,0.59084 -0.393086,0.96946 -0.390675,0.3762 -1.082796,0.3762 -0.617362,0 -0.998391,-0.3135 -0.467845,-0.38827 -0.467845,-1.01769 z m 0.983922,-0.002 q 0,0.34244 0.137459,0.50643 0.139872,0.16399 0.349678,0.16399 0.212219,0 0.347267,-0.16158 0.137459,-0.16157 0.137459,-0.51848 0,-0.3328 -0.137459,-0.49438 -0.13746,-0.16398 -0.340032,-0.16398 -0.21463,0 -0.354501,0.16639 -0.139871,0.16399 -0.139871,0.50161 z m 2.440512,-1.28537 h 0.918809 v 0.41962 q 0.132636,-0.27251 0.272507,-0.3738 0.142283,-0.10369 0.349678,-0.10369 0.217042,0 0.47508,0.13504 l -0.303858,0.69936 q -0.173633,-0.0724 -0.274919,-0.0724 -0.192926,0 -0.299035,0.15917 -0.151929,0.22427 -0.151929,0.83922 v 0.85852 h -0.986333 z m 2.380221,-0.97427 h 0.983922 v 3.53536 h -0.983922 z m 4.307067,0 v 3.53536 h -0.918809 v -0.37861 q -0.192925,0.24115 -0.352089,0.32556 -0.212219,0.11093 -0.472668,0.11093 -0.523311,0 -0.800642,-0.39791 -0.27492,-0.39791 -0.27492,-0.96704 0,-0.63665 0.303859,-0.97427 0.306269,-0.33762 0.776526,-0.33762 0.229099,0 0.41479,0.0772 0.188103,0.0772 0.332797,0.23151 v -1.22508 z m -0.983921,2.24758 q 0,-0.30144 -0.127813,-0.44855 -0.127814,-0.14952 -0.323151,-0.14952 -0.171222,0 -0.286977,0.14229 -0.115756,0.14228 -0.115756,0.47749 0,0.3135 0.118167,0.46061 0.120579,0.14469 0.296624,0.14469 0.188102,0 0.313504,-0.1471 0.125402,-0.14711 0.125402,-0.47991 z"
         id="text5"
         aria-label="V's World"
         inkscape:label="VsWorld"
         transform="translate(45,2.8820067)" />
    </g>
  </g>
  <g
     inkscape:label="Text"
     inkscape:groupmode="layer"
     id="layer1">
    <path
       style="font-weight:900;font-size:3.88056px;font-family:Arial;-inkscape-font-specification:'Arial, Heavy';text-align:center;text-anchor:middle;stroke:#110019;stroke-width:0.265;fill:#ffffff;stroke-opacity:1"
       d="m 6.8876835,105.17987 h 0.8981374 l 0.6252856,1.99902 0.6158115,-1.99902 h 0.8716101 l -1.0307737,2.77779 H 7.9374053 Z m 3.7043435,-0.0474 h 0.394119 l -0.697288,2.87063 H 9.8985281 Z m 0.558967,1.43816 q 0,-0.68024 0.378961,-1.0592 0.378961,-0.37896 1.055406,-0.37896 0.693499,0 1.06867,0.37328 0.375171,0.37138 0.375171,1.04214 0,0.48697 -0.164848,0.79961 -0.162953,0.31075 -0.473701,0.48507 -0.308853,0.17243 -0.771185,0.17243 -0.469912,0 -0.778765,-0.14969 -0.306958,-0.14969 -0.498334,-0.4737 -0.191375,-0.32402 -0.191375,-0.81098 z m 0.858346,0.004 q 0,0.42065 0.155374,0.60444 0.157269,0.1838 0.426332,0.1838 0.276641,0 0.428225,-0.18001 0.151585,-0.18 0.151585,-0.64613 0,-0.39222 -0.159164,-0.57223 -0.157269,-0.1819 -0.428226,-0.1819 -0.259588,0 -0.416857,0.1838 -0.157269,0.18379 -0.157269,0.60823 z m 3.93172,0.59686 0.73329,0.0834 q -0.06063,0.22928 -0.198955,0.39791 -0.138321,0.16675 -0.354328,0.25959 -0.214113,0.0928 -0.545704,0.0928 -0.320222,0 -0.534335,-0.0587 -0.212218,-0.0606 -0.365697,-0.19327 -0.153479,-0.13453 -0.240641,-0.31454 -0.08716,-0.18001 -0.08716,-0.47749 0,-0.31075 0.10611,-0.51728 0.07769,-0.15159 0.212218,-0.27096 0.134531,-0.12127 0.276641,-0.18001 0.225482,-0.0928 0.577916,-0.0928 0.492649,0 0.750342,0.17622 0.259588,0.17621 0.363803,0.51538 l -0.72571,0.0966 q -0.03411,-0.12885 -0.125058,-0.19327 -0.08906,-0.0663 -0.24064,-0.0663 -0.191375,0 -0.310748,0.13832 -0.117478,0.13643 -0.117478,0.41496 0,0.24822 0.117478,0.37707 0.117478,0.12885 0.299379,0.12885 0.151585,0 0.253904,-0.0777 0.104214,-0.0777 0.155374,-0.23875 z m 2.017968,-1.99144 v 0.7655 h 0.424436 v 0.56276 h -0.424436 v 0.71434 q 0,0.12885 0.02463,0.17054 0.0379,0.0644 0.132636,0.0644 0.08527,0 0.238746,-0.0493 l 0.05684,0.53244 q -0.286116,0.0625 -0.534335,0.0625 -0.28801,0 -0.424436,-0.0739 -0.136426,-0.0739 -0.202744,-0.22358 -0.06442,-0.15159 -0.06442,-0.48886 v -0.70866 h -0.28422 v -0.56276 h 0.28422 v -0.36948 z"
       id="text2"
       aria-label="V/Oct"
       inkscape:label="VOctIn" />
    <path
       style="font-weight:900;font-size:3.88056px;font-family:Arial;-inkscape-font-specification:'Arial, Heavy';text-align:center;text-anchor:middle;fill:#ffffff;stroke:#333333;stroke-width:0.265"
       d="m 104.39429,105.21651 h 0.89814 l 0.62529,1.99902 0.61581,-1.99902 h 0.87161 l -1.03077,2.77778 h -0.93035 z m 3.70435,-0.0474 h 0.39412 l -0.69729,2.87063 h -0.39033 z m 0.55897,1.43815 q 0,-0.68023 0.37896,-1.05919 0.37896,-0.37896 1.0554,-0.37896 0.6935,0 1.06867,0.37327 0.37517,0.37139 0.37517,1.04215 0,0.48696 -0.16484,0.7996 -0.16296,0.31075 -0.47371,0.48507 -0.30885,0.17243 -0.77118,0.17243 -0.46991,0 -0.77877,-0.14969 -0.30695,-0.14969 -0.49833,-0.4737 -0.19137,-0.32401 -0.19137,-0.81098 z m 0.85834,0.004 q 0,0.42065 0.15538,0.60445 0.15726,0.18379 0.42633,0.18379 0.27664,0 0.42822,-0.18 0.15159,-0.18001 0.15159,-0.64613 0,-0.39223 -0.15917,-0.57223 -0.15727,-0.1819 -0.42822,-0.1819 -0.25959,0 -0.41686,0.18379 -0.15727,0.1838 -0.15727,0.60823 z m 3.93172,0.59687 0.73329,0.0834 q -0.0606,0.22927 -0.19895,0.39791 -0.13832,0.16674 -0.35433,0.25959 -0.21412,0.0928 -0.54571,0.0928 -0.32022,0 -0.53433,-0.0587 -0.21222,-0.0606 -0.3657,-0.19327 -0.15348,-0.13453 -0.24064,-0.31454 -0.0872,-0.18 -0.0872,-0.47749 0,-0.31074 0.10611,-0.51728 0.0777,-0.15158 0.21222,-0.27096 0.13453,-0.12126 0.27664,-0.18 0.22548,-0.0929 0.57791,-0.0929 0.49265,0 0.75035,0.17622 0.25959,0.17622 0.3638,0.51539 l -0.72571,0.0966 q -0.0341,-0.12884 -0.12506,-0.19327 -0.0891,-0.0663 -0.24064,-0.0663 -0.19137,0 -0.31075,0.13832 -0.11747,0.13643 -0.11747,0.41497 0,0.24822 0.11747,0.37706 0.11748,0.12885 0.29938,0.12885 0.15159,0 0.25391,-0.0777 0.10421,-0.0777 0.15537,-0.23874 z m 2.01797,-1.99144 v 0.7655 h 0.42443 v 0.56276 h -0.42443 v 0.71434 q 0,0.12884 0.0246,0.17053 0.0379,0.0644 0.13264,0.0644 0.0853,0 0.23874,-0.0493 l 0.0568,0.53244 q -0.28612,0.0625 -0.53434,0.0625 -0.28801,0 -0.42443,-0.0739 -0.13643,-0.0739 -0.20275,-0.22359 -0.0644,-0.15158 -0.0644,-0.48886 v -0.70865 h -0.28422 v -0.56276 h 0.28422 v -0.36949 z"
       id="text4"
       aria-label="V/Oct"
       inkscape:label="VOct" />
    <path
       style="font-weight:900;font-size:4.9389px;font-family:Arial;-inkscape-font-specification:'Arial, Heavy';stroke:#110019;stroke-width:0.265;fill:#ffffff;stroke-opacity:1"
       d="m 36.273433,4.7325002 h 1.203374 l 0.627009,1.0876191 0.607716,-1.0876191 h 1.191317 l -1.099677,1.7122164 1.203375,1.8231486 H 38.779056 L 38.082112,7.1320146 37.382756,8.2678652 H 36.162501 L 37.382756,6.425424 Z m 3.831988,1.866557 h 1.427651 v 0.7596452 h -1.427651 z m 1.897907,-1.866557 h 1.092443 v 2.6647874 h 1.704981 v 0.8705776 h -2.797424 z m 3.26527,0 h 0.981509 v 0.6680056 h -0.981509 z m 0,0.9742752 h 0.981509 v 2.5610898 h -0.981509 z m 1.615753,0 h 0.916398 v 0.3737937 q 0.197748,-0.2339225 0.397909,-0.3327969 0.202572,-0.098874 0.487138,-0.098874 0.306269,0 0.484726,0.1085208 0.178456,0.1085207 0.2918,0.3231506 0.231511,-0.2508035 0.422025,-0.3400317 0.190514,-0.09164 0.470257,-0.09164 0.412378,0 0.643889,0.2459804 0.231511,0.2435688 0.231511,0.7644684 V 8.2678652 H 50.246083 V 6.808864 q 0,-0.1736332 -0.06752,-0.2580383 -0.09887,-0.1326364 -0.245981,-0.1326364 -0.173633,0 -0.279742,0.1254017 -0.106109,0.1254018 -0.106109,0.4027326 V 8.2678652 H 48.562805 V 6.8570954 q 0,-0.1688101 -0.01929,-0.2290994 -0.03135,-0.096463 -0.108521,-0.1543406 -0.07717,-0.060289 -0.180868,-0.060289 -0.16881,0 -0.277331,0.1278133 -0.10852,0.1278134 -0.10852,0.4196136 V 8.2678652 H 46.884351 Z M 51.85219,4.7325002 h 0.98151 v 0.6680056 h -0.98151 z m 0,0.9742752 h 0.98151 v 2.5610898 h -0.98151 z m 2.792601,-0.9742752 v 0.9742752 h 0.540192 v 0.716237 h -0.540192 v 0.9091627 q 0,0.163987 0.03135,0.2170415 0.04823,0.081993 0.16881,0.081993 0.108521,0 0.303858,-0.062701 l 0.07235,0.6776518 q -0.364148,0.079582 -0.680064,0.079582 -0.366559,0 -0.540192,-0.094051 -0.173633,-0.094051 -0.258038,-0.2845655 -0.08199,-0.1929258 -0.08199,-0.6221857 v -0.901928 h -0.361736 v -0.716237 h 0.361736 V 5.2365188 Z m 4.191311,0 h 1.094854 v 1.9220231 q 0,0.6053047 -0.108521,0.9212206 -0.106109,0.315916 -0.431671,0.5353691 -0.323151,0.2194531 -0.829581,0.2194531 -0.535369,0 -0.829581,-0.1446944 Q 57.43739,8.0411774 57.275815,7.7638466 57.116651,7.4841042 57.087712,7.0741369 l 1.044211,-0.1422828 q 0.0024,0.2339226 0.041,0.3472665 0.03859,0.1133438 0.130225,0.1832794 0.0627,0.04582 0.178456,0.04582 0.18328,0 0.267685,-0.135048 0.08682,-0.1374596 0.08682,-0.4606103 z m 1.866558,0 h 1.094854 v 3.535365 H 60.70266 Z m 5.700956,2.9517645 h -1.244371 l -0.171222,0.5836005 h -1.116558 l 1.328776,-3.535365 h 1.191317 l 1.328776,3.535365 H 66.577249 Z M 66.174517,6.9197963 65.783842,5.6488977 65.395579,6.9197963 Z m 4.480701,1.3480689 H 69.738821 V 7.8530748 q -0.204984,0.2556266 -0.414791,0.3641474 -0.207395,0.1085207 -0.511253,0.1085207 -0.405144,0 -0.636655,-0.2411572 Q 67.947023,7.8410169 67.947023,7.3369983 V 5.7067754 h 0.986333 v 1.4083582 q 0,0.2411573 0.08923,0.3424433 0.08923,0.101286 0.250803,0.101286 0.176045,0 0.286978,-0.135048 0.113343,-0.1350481 0.113343,-0.484726 V 5.7067754 h 0.98151 z m 1.779742,-3.535365 v 0.9742752 h 0.540192 v 0.716237 H 72.43496 v 0.9091627 q 0,0.163987 0.03135,0.2170415 0.04823,0.081993 0.16881,0.081993 0.108521,0 0.303858,-0.062701 l 0.07235,0.6776518 q -0.364147,0.079582 -0.680063,0.079582 -0.366559,0 -0.540192,-0.094051 -0.173633,-0.094051 -0.258039,-0.2845655 -0.08199,-0.1929258 -0.08199,-0.6221857 v -0.901928 h -0.361736 v -0.716237 h 0.361736 V 5.2365188 Z m 0.887459,2.2620548 q 0,-0.586012 0.395497,-0.9646289 0.395498,-0.3810284 1.068327,-0.3810284 0.769291,0 1.162378,0.4461409 0.315916,0.3593242 0.315916,0.885047 0,0.5908352 -0.393087,0.969452 -0.390674,0.3762053 -1.082796,0.3762053 -0.617362,0 -0.99839,-0.3135044 Q 73.322419,7.6239754 73.322419,6.994555 Z m 0.983921,-0.00241 q 0,0.3424432 0.13746,0.5064301 0.139871,0.1639869 0.349678,0.1639869 0.212218,0 0.347266,-0.1615753 0.13746,-0.1615753 0.13746,-0.518488 0,-0.332797 -0.13746,-0.4943723 -0.13746,-0.163987 -0.340032,-0.163987 -0.21463,0 -0.354501,0.1663985 -0.139871,0.1639869 -0.139871,0.5016071 z m 3.614948,-2.2596433 v 0.9742752 h 0.540192 v 0.716237 h -0.540192 v 0.9091627 q 0,0.163987 0.03135,0.2170415 0.04823,0.081993 0.16881,0.081993 0.108521,0 0.303858,-0.062701 l 0.07235,0.6776518 q -0.364147,0.079582 -0.680063,0.079582 -0.366559,0 -0.540192,-0.094051 Q 77.103765,8.1376403 77.01936,7.9471261 76.937366,7.7542003 76.937366,7.3249404 V 6.4230124 H 76.57563 v -0.716237 h 0.361736 V 5.2365188 Z m 3.706583,3.535365 H 80.711473 V 7.8530748 q -0.204983,0.2556266 -0.41479,0.3641474 -0.207395,0.1085207 -0.511253,0.1085207 -0.405145,0 -0.636655,-0.2411572 -0.2291,-0.2435688 -0.2291,-0.7475874 V 5.7067754 h 0.986333 v 1.4083582 q 0,0.2411573 0.08923,0.3424433 0.08923,0.101286 0.250804,0.101286 0.176045,0 0.286977,-0.135048 0.113344,-0.1350481 0.113344,-0.484726 V 5.7067754 h 0.98151 z M 82.22353,5.7067754 h 0.913986 v 0.417202 Q 83.3425,5.8683508 83.552306,5.75983 83.762113,5.6488977 84.06356,5.6488977 q 0.407555,0 0.636655,0.2435688 0.231511,0.2411572 0.231511,0.7475874 V 8.2678652 H 83.945393 V 6.859507 q 0,-0.2411572 -0.08923,-0.3400317 -0.08923,-0.101286 -0.250803,-0.101286 -0.178456,0 -0.289389,0.135048 -0.110932,0.135048 -0.110932,0.484726 v 1.2299019 h -0.98151 z m 6.137452,1.5241137 h -1.967843 q 0.02653,0.2363341 0.127814,0.3520896 0.142282,0.1663984 0.371382,0.1663984 0.144694,0 0.274919,-0.072347 0.07958,-0.04582 0.171222,-0.1615754 l 0.96704,0.089228 q -0.221865,0.3858516 -0.535369,0.5546616 -0.313504,0.1663985 -0.899516,0.1663985 -0.508842,0 -0.800642,-0.1422827 Q 85.778188,8.0387658 85.585263,7.727673 85.394748,7.4141686 85.394748,6.9921435 q 0,-0.6004815 0.38344,-0.9718637 0.385852,-0.3713821 1.063504,-0.3713821 0.549838,0 0.868166,0.1663985 0.318327,0.1663985 0.484726,0.4823144 0.166398,0.315916 0.166398,0.8223462 z M 87.362591,6.7606325 Q 87.333652,6.476067 87.208251,6.3530768 87.08526,6.2300866 86.882688,6.2300866 q -0.233922,0 -0.373793,0.1856911 -0.08923,0.1157555 -0.113344,0.3448548 z m 1.459002,-1.0538571 h 0.918809 V 6.126389 q 0.132637,-0.2725077 0.272508,-0.3737937 0.142283,-0.1036976 0.349678,-0.1036976 0.217041,0 0.47508,0.1350481 L 90.53381,6.4833017 q -0.173634,-0.072347 -0.27492,-0.072347 -0.192925,0 -0.299035,0.1591638 -0.151929,0.2242762 -0.151929,0.8392272 v 0.8585197 h -0.986333 z"
       id="text6"
       aria-label="X-Limit JI Autotuner"
       inkscape:label="Title" />
    <path
       style="font-weight:900;font-size:4.9389px;font-family:Arial;-inkscape-font-specification:'Arial, Heavy';stroke:#110019;stroke-width:0.265;fill:#ffffff;stroke-opacity:1"
       d="M 15.446441,48.833359 H 12.4995 q 0.05064,-0.436494 0.30627,-0.819934 0.258038,-0.385852 0.964629,-0.909163 0.431671,-0.320739 0.55225,-0.487138 0.120578,-0.166398 0.120578,-0.315916 0,-0.161575 -0.120578,-0.274919 -0.118167,-0.115755 -0.299035,-0.115755 -0.188103,0 -0.308682,0.118167 -0.118167,0.118167 -0.159163,0.417202 l -0.983922,-0.07958 q 0.05788,-0.414791 0.212219,-0.646302 0.15434,-0.233922 0.434083,-0.356912 0.282153,-0.125402 0.778937,-0.125402 0.518488,0 0.805466,0.118167 0.289388,0.118167 0.453375,0.364147 0.166399,0.243569 0.166399,0.547427 0,0.323151 -0.190515,0.617363 -0.188102,0.294212 -0.687298,0.646301 -0.296623,0.204984 -0.397909,0.286977 -0.09887,0.08199 -0.233923,0.21463 h 1.53376 z"
       id="text18"
       inkscape:label="T2"
       aria-label="2" />
    <path
       style="font-weight:900;font-size:4.9389px;font-family:Arial;-inkscape-font-specification:'Arial, Heavy';stroke:#110019;stroke-width:0.265;fill:#ffffff;stroke-opacity:1"
       d="m 27.482009,46.320501 -0.928455,-0.166399 q 0.115755,-0.443729 0.443729,-0.680063 0.330386,-0.236334 0.933279,-0.236334 0.692121,0 1.000802,0.258038 0.308681,0.258038 0.308681,0.648713 0,0.2291 -0.125401,0.414791 -0.125402,0.185691 -0.378617,0.325562 0.204983,0.05064 0.313504,0.118167 0.176045,0.108521 0.272508,0.286977 0.09887,0.176045 0.09887,0.422025 0,0.308681 -0.161575,0.593247 -0.161575,0.282154 -0.465433,0.436494 -0.303859,0.15193 -0.798231,0.15193 -0.482314,0 -0.762057,-0.113344 -0.27733,-0.113344 -0.458198,-0.330386 -0.178457,-0.219453 -0.27492,-0.549838 l 0.98151,-0.130225 q 0.05788,0.296623 0.178457,0.412379 0.12299,0.113344 0.311092,0.113344 0.197749,0 0.327974,-0.144695 0.132637,-0.144694 0.132637,-0.385851 0,-0.245981 -0.127814,-0.381029 -0.125401,-0.135048 -0.342443,-0.135048 -0.115755,0 -0.318327,0.05788 l 0.05064,-0.701768 q 0.08199,0.01206 0.127813,0.01206 0.192926,0 0.320739,-0.12299 0.130225,-0.12299 0.130225,-0.2918 0,-0.161575 -0.09646,-0.258038 -0.09646,-0.09646 -0.265273,-0.09646 -0.173633,0 -0.282154,0.106109 -0.108521,0.103698 -0.147106,0.366559 z"
       id="text11"
       inkscape:label="T3"
       aria-label="3" />
    <path
       style="font-weight:900;font-size:4.9389px;font-family:Arial;-inkscape-font-specification:'Arial, Heavy';stroke:#110019;stroke-width:0.265;fill:#ffffff;stroke-opacity:1"
       d="m 40.839407,45.237707 h 2.331991 v 0.783761 h -1.57958 l -0.08441,0.530546 q 0.163987,-0.07717 0.323151,-0.115756 0.161575,-0.03858 0.318327,-0.03858 0.530546,0 0.860931,0.320739 0.330386,0.320739 0.330386,0.807877 0,0.342443 -0.171222,0.658359 -0.16881,0.315916 -0.482314,0.482315 -0.311093,0.166398 -0.798231,0.166398 -0.349678,0 -0.600481,-0.06511 -0.248392,-0.06752 -0.424437,-0.197749 -0.173633,-0.132637 -0.282154,-0.299035 -0.108521,-0.166399 -0.180868,-0.414791 l 0.993568,-0.10852 q 0.03617,0.238745 0.16881,0.364147 0.132637,0.12299 0.315916,0.12299 0.204984,0 0.33762,-0.15434 0.135048,-0.156753 0.135048,-0.465434 0,-0.315916 -0.135048,-0.463022 -0.135048,-0.147106 -0.359324,-0.147106 -0.142283,0 -0.274919,0.06994 -0.09887,0.05064 -0.217042,0.183279 l -0.83681,-0.120589 z"
       id="text12"
       inkscape:label="T5"
       aria-label="5" />
    <path
       style="font-weight:900;font-size:4.9389px;font-family:Arial;-inkscape-font-specification:'Arial, Heavy';stroke:#110019;stroke-width:0.265;fill:#ffffff;stroke-opacity:1"
       d="m 54.500501,45.237707 h 2.867359 v 0.663182 q -0.373793,0.33762 -0.624597,0.730707 -0.303858,0.477491 -0.479903,1.063503 -0.139871,0.455787 -0.188102,1.077973 h -0.979099 q 0.115756,-0.865755 0.364148,-1.451767 0.248392,-0.586012 0.786172,-1.254017 h -1.745978 z"
       id="text13"
       inkscape:label="T7"
       aria-label="7" />
    <path
       style="font-weight:900;font-size:4.9389px;font-family:Arial;-inkscape-font-specification:'Arial, Heavy';stroke:#110019;stroke-width:0.265;fill:#ffffff;stroke-opacity:1"
       d="m 69.526224,45.237705 v 3.595654 h -0.993568 v -2.356106 q -0.241157,0.18328 -0.467845,0.296624 -0.224276,0.113343 -0.564308,0.217041 v -0.805465 q 0.501607,-0.161575 0.778938,-0.388263 0.277331,-0.226688 0.434083,-0.559485 z m 3.294208,0 v 3.595654 h -0.993568 v -2.356106 q -0.241157,0.18328 -0.467845,0.296624 -0.224276,0.113343 -0.564308,0.217041 v -0.805465 q 0.501607,-0.161575 0.778938,-0.388263 0.277331,-0.226688 0.434083,-0.559485 z"
       id="text14"
       inkscape:label="T11"
       aria-label="11" />
    <path
       style="font-weight:900;font-size:4.9389px;font-family:Arial;-inkscape-font-specification:'Arial, Heavy';stroke:#110019;stroke-width:0.265;fill:#ffffff;stroke-opacity:1"
       d="m 83.526224,45.237705 v 3.595654 h -0.993568 v -2.356106 q -0.241157,0.18328 -0.467845,0.296624 -0.224276,0.113343 -0.564308,0.217041 v -0.805465 q 0.501607,-0.161575 0.778938,-0.388263 0.277331,-0.226688 0.434083,-0.559485 z m 2.020898,1.082796 -0.928456,-0.166399 q 0.115756,-0.443729 0.44373,-0.680063 0.330385,-0.236334 0.933278,-0.236334 0.692121,0 1.000803,0.258038 0.308681,0.258038 0.308681,0.648713 0,0.2291 -0.125402,0.414791 -0.125402,0.185691 -0.378617,0.325562 0.204984,0.05064 0.313505,0.118167 0.176044,0.108521 0.272507,0.286977 0.09887,0.176045 0.09887,0.422025 0,0.308681 -0.161576,0.593247 -0.161575,0.282154 -0.465433,0.436494 -0.303858,0.15193 -0.79823,0.15193 -0.482315,0 -0.762057,-0.113344 -0.277331,-0.113344 -0.458199,-0.330386 -0.178456,-0.219453 -0.274919,-0.549838 l 0.98151,-0.130225 q 0.05788,0.296623 0.178456,0.412379 0.12299,0.113344 0.311093,0.113344 0.197749,0 0.327974,-0.144695 0.132636,-0.144694 0.132636,-0.385851 0,-0.245981 -0.127813,-0.381029 -0.125402,-0.135048 -0.342444,-0.135048 -0.115755,0 -0.318327,0.05788 l 0.05064,-0.701768 q 0.08199,0.01206 0.127813,0.01206 0.192926,0 0.320739,-0.12299 0.130225,-0.12299 0.130225,-0.2918 0,-0.161575 -0.09646,-0.258038 -0.09646,-0.09646 -0.265273,-0.09646 -0.173633,0 -0.282153,0.106109 -0.108521,0.103698 -0.147106,0.366559 z"
       id="text15"
       inkscape:label="T13"
       aria-label="13" />
    <path
       style="font-weight:900;font-size:4.9389px;font-family:Arial;-inkscape-font-specification:'Arial, Heavy';stroke:#110019;stroke-width:0.265;fill:#ffffff;stroke-opacity:1"
       d="m 97.426218,45.237705 v 3.595654 H 96.43265 v -2.356106 q -0.241157,0.18328 -0.467845,0.296624 -0.224276,0.113343 -0.564308,0.217041 v -0.805465 q 0.501607,-0.161575 0.778938,-0.388263 0.277331,-0.226688 0.434083,-0.559485 z m 1.085207,0.06029 h 2.867355 v 0.663183 q -0.37379,0.33762 -0.62459,0.730706 -0.30386,0.477491 -0.47991,1.063503 -0.13987,0.455788 -0.1881,1.077973 h -0.979096 q 0.115755,-0.865754 0.364147,-1.451766 0.248392,-0.586012 0.786169,-1.254018 h -1.745975 z"
       id="text16"
       inkscape:label="T17"
       aria-label="17" />
    <path
       style="font-weight:900;font-size:4.9389px;font-family:Arial;-inkscape-font-specification:'Arial, Heavy';stroke:#110019;stroke-width:0.265;fill:#ffffff;stroke-opacity:1"
       d="m 111.52522,45.237705 v 3.595654 h -0.99357 v -2.356106 q -0.24116,0.18328 -0.46785,0.296624 -0.22427,0.113343 -0.5643,0.217041 v -0.805465 q 0.5016,-0.161575 0.77893,-0.388263 0.27733,-0.226688 0.43409,-0.559485 z m 1.11173,2.802247 0.97669,-0.12299 q 0.0386,0.204983 0.13022,0.289388 0.0916,0.08441 0.22428,0.08441 0.23633,0 0.36897,-0.238745 0.0965,-0.176045 0.14469,-0.745176 -0.17604,0.180868 -0.36173,0.265273 -0.18569,0.0844 -0.42926,0.0844 -0.47508,0 -0.80305,-0.33762 -0.32557,-0.33762 -0.32557,-0.853697 0,-0.352089 0.1664,-0.641478 0.1664,-0.289389 0.4582,-0.436495 0.2918,-0.149517 0.73312,-0.149517 0.53054,0 0.85128,0.183279 0.32074,0.180868 0.51126,0.578778 0.19292,0.395498 0.19292,1.046622 0,0.957394 -0.40273,1.403535 -0.40273,0.44373 -1.11656,0.44373 -0.42202,0 -0.66559,-0.09646 -0.24357,-0.09887 -0.40515,-0.286977 -0.16157,-0.188103 -0.24839,-0.470257 z m 1.80868,-1.577168 q 0,-0.286977 -0.14469,-0.448553 -0.1447,-0.163987 -0.35209,-0.163987 -0.19534,0 -0.32557,0.147106 -0.12781,0.147106 -0.12781,0.441318 0,0.296623 0.13264,0.453376 0.13505,0.156752 0.33521,0.156752 0.20739,0 0.34485,-0.151929 0.13746,-0.151929 0.13746,-0.434083 z"
       id="text17"
       inkscape:label="T19"
       aria-label="19" />
    <g
       id="text1"
       style="font-weight:900;font-size:3.88056px;font-family:Arial;-inkscape-font-specification:'Arial, Heavy';text-align:center;text-anchor:middle;fill:#ffffff;stroke:#333333;stroke-width:0.264999"
       inkscape:label="VOctResidual"
       aria-label="V/Oct&#10;Residual"
       transform="translate(0,1.0007701)">
      <path
         style="stroke-width:0.265;fill:#ffffff;stroke:#333333"
         d="m 104.25624,74.21596 h 0.89814 l 0.62528,1.999019 0.61581,-1.999019 h 0.87161 l -1.03077,2.777784 h -0.93035 z m 3.70434,-0.04737 h 0.39412 l -0.69729,2.870629 h -0.39033 z m 0.55897,1.438157 q 0,-0.680235 0.37896,-1.059196 0.37896,-0.378961 1.05541,-0.378961 0.6935,0 1.06867,0.373277 0.37517,0.371381 0.37517,1.042142 0,0.486965 -0.16485,0.799608 -0.16295,0.310748 -0.4737,0.48507 -0.30885,0.172427 -0.77119,0.172427 -0.46991,0 -0.77876,-0.14969 -0.30696,-0.149689 -0.49833,-0.473701 -0.19138,-0.324011 -0.19138,-0.810976 z m 0.85835,0.0038 q 0,0.420646 0.15537,0.604442 0.15727,0.183796 0.42633,0.183796 0.27664,0 0.42823,-0.180006 0.15158,-0.180007 0.15158,-0.646129 0,-0.392224 -0.15916,-0.572231 -0.15727,-0.181901 -0.42823,-0.181901 -0.25959,0 -0.41685,0.183796 -0.15727,0.183796 -0.15727,0.608233 z m 3.93172,0.596863 0.73329,0.08337 q -0.0606,0.229272 -0.19896,0.397909 -0.13832,0.166743 -0.35433,0.259589 -0.21411,0.09284 -0.5457,0.09284 -0.32022,0 -0.53434,-0.05874 -0.21221,-0.06063 -0.36569,-0.19327 -0.15348,-0.134531 -0.24064,-0.314538 -0.0872,-0.180006 -0.0872,-0.47749 0,-0.310748 0.1061,-0.517282 0.0777,-0.151584 0.21222,-0.270957 0.13453,-0.121268 0.27664,-0.180007 0.22549,-0.09284 0.57792,-0.09284 0.49265,0 0.75034,0.176217 0.25959,0.176217 0.3638,0.515387 l -0.72571,0.09664 q -0.0341,-0.128847 -0.12505,-0.19327 -0.0891,-0.06632 -0.24064,-0.06632 -0.19138,0 -0.31075,0.13832 -0.11748,0.136426 -0.11748,0.414963 0,0.248219 0.11748,0.377066 0.11748,0.128846 0.29938,0.128846 0.15158,0 0.2539,-0.07769 0.10422,-0.07769 0.15538,-0.238745 z m 2.01796,-1.99144 v 0.765501 h 0.42444 v 0.562757 h -0.42444 v 0.714342 q 0,0.128846 0.0246,0.170532 0.0379,0.06442 0.13263,0.06442 0.0853,0 0.23875,-0.04926 l 0.0568,0.53244 q -0.28611,0.06253 -0.53433,0.06253 -0.28801,0 -0.42444,-0.0739 -0.13643,-0.0739 -0.20274,-0.223587 -0.0644,-0.151584 -0.0644,-0.48886 v -0.708657 h -0.28422 v -0.562757 h 0.28422 v -0.369487 z"
         id="path2" />
      <path
         style="stroke-width:0.265;fill:#ffffff;stroke:#333333"
         d="M 101.24729,81.844444 V 79.06666 h 1.43058 q 0.39791,0 0.60823,0.06821 0.21032,0.06821 0.33917,0.253904 0.12885,0.183796 0.12885,0.449069 0,0.231166 -0.0985,0.399803 -0.0985,0.166743 -0.27096,0.270958 -0.1099,0.06632 -0.30127,0.109898 0.15347,0.05116 0.22358,0.10232 0.0474,0.03411 0.13643,0.1459 0.0909,0.111793 0.12127,0.172427 l 0.41496,0.805292 h -0.97014 l -0.45854,-0.848873 q -0.0872,-0.164848 -0.15538,-0.214113 -0.0928,-0.06442 -0.21032,-0.06442 h -0.0758 v 1.127409 z m 0.86214,-1.65227 h 0.3619 q 0.0587,0 0.22738,-0.0379 0.0853,-0.01705 0.13832,-0.08716 0.055,-0.07011 0.055,-0.161058 0,-0.134531 -0.0853,-0.206534 -0.0853,-0.072 -0.32022,-0.072 h -0.37706 z m 4.23109,0.837504 h -1.54616 q 0.0208,0.185691 0.10043,0.276641 0.11179,0.130742 0.2918,0.130742 0.11369,0 0.21601,-0.05684 0.0625,-0.036 0.13453,-0.126952 l 0.75981,0.07011 q -0.17432,0.303168 -0.42064,0.435805 -0.24633,0.130741 -0.70676,0.130741 -0.39981,0 -0.62908,-0.111793 -0.22927,-0.113689 -0.38086,-0.358118 -0.14969,-0.246325 -0.14969,-0.577916 0,-0.471806 0.30128,-0.763606 0.30317,-0.2918 0.83561,-0.2918 0.43201,0 0.68213,0.130741 0.25011,0.130742 0.38085,0.378961 0.13074,0.24822 0.13074,0.646129 z m -0.78444,-0.369487 q -0.0227,-0.223587 -0.12127,-0.320222 -0.0966,-0.09663 -0.2558,-0.09663 -0.1838,0 -0.2937,0.1459 -0.0701,0.09095 -0.0891,0.270957 z m 1.00235,0.62718 0.7655,-0.072 q 0.0474,0.136426 0.13263,0.195165 0.0853,0.05874 0.22738,0.05874 0.15538,0 0.24064,-0.06632 0.0663,-0.04926 0.0663,-0.123162 0,-0.08337 -0.0872,-0.128847 -0.0625,-0.03221 -0.33159,-0.07958 -0.4017,-0.07011 -0.55897,-0.128847 -0.15537,-0.06063 -0.26338,-0.202744 -0.10611,-0.142111 -0.10611,-0.324012 0,-0.198954 0.11559,-0.34296 0.11558,-0.144005 0.31832,-0.214112 0.20275,-0.072 0.54381,-0.072 0.36002,0 0.53055,0.05495 0.17243,0.05495 0.28611,0.170533 0.11559,0.115583 0.19138,0.312642 l -0.7314,0.072 q -0.0284,-0.09663 -0.0947,-0.14211 -0.0909,-0.06063 -0.21979,-0.06063 -0.13075,0 -0.19138,0.04737 -0.0587,0.04547 -0.0587,0.111794 0,0.0739 0.0758,0.111793 0.0758,0.0379 0.3297,0.06821 0.38465,0.04358 0.57223,0.121267 0.18759,0.07769 0.28612,0.221693 0.10042,0.144005 0.10042,0.316432 0,0.174322 -0.10611,0.33917 -0.10421,0.164848 -0.33159,0.263378 -0.22548,0.09663 -0.61581,0.09663 -0.55139,0 -0.78634,-0.157269 -0.23306,-0.157269 -0.29938,-0.447174 z m 2.53525,-2.220711 h 0.77118 v 0.524861 h -0.77118 z m 0,0.765501 h 0.77118 v 2.012283 h -0.77118 z m 3.38222,-0.765501 v 2.777784 h -0.72192 v -0.297485 q -0.15158,0.189481 -0.27664,0.255799 -0.16674,0.08716 -0.37138,0.08716 -0.41117,0 -0.62908,-0.312643 -0.216,-0.312642 -0.216,-0.759816 0,-0.500229 0.23874,-0.765501 0.24064,-0.265273 0.61013,-0.265273 0.18,0 0.3259,0.06063 0.1478,0.06063 0.26149,0.181901 V 79.06666 Z m -0.77308,1.765958 q 0,-0.23685 -0.10042,-0.352434 -0.10043,-0.117477 -0.25391,-0.117477 -0.13453,0 -0.22548,0.111793 -0.0909,0.111794 -0.0909,0.375171 0,0.246325 0.0928,0.361908 0.0947,0.113688 0.23306,0.113688 0.14779,0 0.24632,-0.115583 0.0985,-0.115583 0.0985,-0.377066 z m 3.36328,1.011826 h -0.72003 v -0.325907 q -0.16105,0.20085 -0.3259,0.286116 -0.16296,0.08527 -0.4017,0.08527 -0.31833,0 -0.50023,-0.18948 -0.18001,-0.191376 -0.18001,-0.58739 v -1.280888 h 0.77498 v 1.106566 q 0,0.189481 0.0701,0.269062 0.0701,0.07958 0.19706,0.07958 0.13832,0 0.22548,-0.106109 0.0891,-0.106109 0.0891,-0.380856 v -0.968245 h 0.77119 z m 1.17099,-1.36047 -0.73708,-0.07769 q 0.0417,-0.19327 0.11937,-0.303169 0.0796,-0.111793 0.22738,-0.19327 0.10611,-0.05874 0.2918,-0.09095 0.18569,-0.03221 0.4017,-0.03221 0.34675,0 0.55707,0.03979 0.21032,0.0379 0.35054,0.161058 0.0985,0.08527 0.15537,0.242535 0.0568,0.155374 0.0568,0.297485 v 0.888663 q 0,0.14211 0.017,0.223587 0.019,0.07958 0.0796,0.204639 h -0.72381 q -0.0436,-0.07769 -0.0568,-0.117478 -0.0133,-0.04169 -0.0265,-0.128847 -0.15159,0.1459 -0.30128,0.208429 -0.20464,0.08337 -0.47559,0.08337 -0.36002,0 -0.5476,-0.166743 -0.18569,-0.166743 -0.18569,-0.411172 0,-0.229272 0.13453,-0.377066 0.13453,-0.147795 0.49644,-0.219798 0.43391,-0.08716 0.56275,-0.121267 0.12885,-0.036 0.27286,-0.09285 0,-0.14211 -0.0587,-0.198954 -0.0587,-0.05684 -0.20654,-0.05684 -0.18948,0 -0.28422,0.06063 -0.0739,0.04737 -0.11937,0.178112 z m 0.66887,0.405488 q -0.15917,0.05684 -0.3316,0.100425 -0.23495,0.06253 -0.29748,0.123162 -0.0644,0.06253 -0.0644,0.142111 0,0.09095 0.0625,0.149689 0.0644,0.05684 0.18758,0.05684 0.12885,0 0.23875,-0.06253 0.11179,-0.06253 0.15727,-0.151585 0.0474,-0.09095 0.0474,-0.234955 z m 1.24299,-1.822802 h 0.77308 v 2.777784 h -0.77308 z"
         id="path3" />
    </g>
    <path
       style="font-weight:900;font-size:3.88056px;font-family:Arial;-inkscape-font-specification:'Arial, Heavy';text-align:center;text-anchor:middle;fill:#ffffff;stroke:#000000;stroke-width:0.265"
       d="m 41.505,22.37987 h 1.129304 l 0.435805,1.690166 0.43391,-1.690166 h 1.125514 v 2.777784 h -0.701078 v -2.118392 l -0.543809,2.118392 h -0.634759 l -0.541914,-2.118392 v 2.118392 H 41.505 Z m 3.526232,1.777327 q 0,-0.460438 0.310748,-0.757922 0.310748,-0.299379 0.839398,-0.299379 0.604443,0 0.913296,0.350539 0.248219,0.282326 0.248219,0.695393 0,0.464227 -0.308853,0.761712 -0.306958,0.295589 -0.850767,0.295589 -0.48507,0 -0.784449,-0.246324 -0.367592,-0.305064 -0.367592,-0.799608 z m 0.77308,-0.0019 q 0,0.269062 0.108004,0.397909 0.109899,0.128847 0.274747,0.128847 0.166742,0 0.272851,-0.126952 0.108004,-0.126952 0.108004,-0.407383 0,-0.261483 -0.108004,-0.388435 -0.108003,-0.128847 -0.267167,-0.128847 -0.168638,0 -0.278536,0.130742 -0.109899,0.128846 -0.109899,0.394119 z m 1.909963,-1.009931 h 0.718131 v 0.327801 q 0.161058,-0.200849 0.325906,-0.286115 0.164848,-0.08716 0.401699,-0.08716 0.320222,0 0.500228,0.191375 0.181901,0.189481 0.181901,0.58739 v 1.278993 h -0.774975 v -1.106566 q 0,-0.189481 -0.07011,-0.267168 -0.07011,-0.07958 -0.19706,-0.07958 -0.140216,0 -0.227377,0.106109 -0.08716,0.106109 -0.08716,0.380855 v 0.966351 h -0.771185 z m 2.501142,0 H 52.0818 v 0.450964 l -1.015615,1.034563 h 1.078143 v 0.526756 h -2.004703 v -0.500229 l 0.962561,-0.985298 h -0.886769 z m 2.112707,1.011826 q 0,-0.460438 0.310748,-0.757922 0.310748,-0.299379 0.839399,-0.299379 0.604442,0 0.913295,0.350539 0.24822,0.282326 0.24822,0.695393 0,0.464227 -0.308853,0.761712 -0.306959,0.295589 -0.850768,0.295589 -0.48507,0 -0.784449,-0.246324 -0.367592,-0.305064 -0.367592,-0.799608 z m 0.77308,-0.0019 q 0,0.269062 0.108004,0.397909 0.109899,0.128847 0.274747,0.128847 0.166743,0 0.272852,-0.126952 0.108004,-0.126952 0.108004,-0.407383 0,-0.261483 -0.108004,-0.388435 -0.108004,-0.128847 -0.267168,-0.128847 -0.168637,0 -0.278536,0.130742 -0.109899,0.128846 -0.109899,0.394119 z m 3.105585,0.08337 0.816661,-0.05116 q 0.02653,0.198954 0.108004,0.303169 0.132636,0.168637 0.378961,0.168637 0.183796,0 0.282326,-0.08527 0.100425,-0.08716 0.100425,-0.200849 0,-0.108004 -0.09474,-0.19327 -0.09474,-0.08527 -0.439594,-0.161059 -0.564652,-0.126952 -0.805292,-0.337275 -0.242535,-0.210323 -0.242535,-0.53623 0,-0.214113 0.123162,-0.403593 0.125057,-0.191375 0.373276,-0.299379 0.250115,-0.109899 0.684025,-0.109899 0.53244,0 0.810976,0.198955 0.280431,0.197059 0.333486,0.629075 l -0.809082,0.04737 q -0.03221,-0.187586 -0.136426,-0.272852 -0.102319,-0.08527 -0.28422,-0.08527 -0.14969,0 -0.225482,0.06442 -0.07579,0.06253 -0.07579,0.153479 0,0.06632 0.06253,0.119373 0.06063,0.05495 0.288011,0.102319 0.562757,0.121268 0.805292,0.246325 0.244429,0.123162 0.354328,0.306958 0.111794,0.183796 0.111794,0.411173 0,0.267167 -0.147795,0.492649 -0.147795,0.225482 -0.413068,0.34296 -0.265272,0.115583 -0.668866,0.115583 -0.708657,0 -0.981508,-0.272852 -0.272852,-0.272852 -0.308854,-0.693498 z m 5.134921,0.104214 h -1.546161 q 0.02084,0.185691 0.100425,0.276641 0.111793,0.130742 0.2918,0.130742 0.113688,0 0.216007,-0.05684 0.06253,-0.036 0.134532,-0.126952 l 0.759816,0.07011 q -0.174322,0.303168 -0.420646,0.435805 -0.246325,0.130741 -0.706763,0.130741 -0.399803,0 -0.629075,-0.111793 -0.229271,-0.113689 -0.380855,-0.358118 -0.14969,-0.246325 -0.14969,-0.577916 0,-0.471806 0.301274,-0.763606 0.303169,-0.2918 0.835609,-0.2918 0.432015,0 0.682129,0.130741 0.250115,0.130742 0.380856,0.378961 0.130742,0.24822 0.130742,0.646129 z m -0.784449,-0.369487 q -0.02274,-0.223587 -0.121268,-0.320222 -0.09664,-0.09664 -0.255799,-0.09664 -0.183796,0 -0.293694,0.1459 -0.07011,0.09095 -0.08906,0.270957 z m 1.841749,-0.176217 -0.737079,-0.07769 q 0.04169,-0.19327 0.119373,-0.303169 0.07958,-0.111793 0.227376,-0.19327 0.10611,-0.05874 0.2918,-0.09095 0.185691,-0.03221 0.401699,-0.03221 0.346749,0 0.557073,0.03979 0.210323,0.0379 0.350538,0.161058 0.09853,0.08527 0.155374,0.242535 0.05684,0.155374 0.05684,0.297485 v 0.888663 q 0,0.14211 0.01705,0.223587 0.01895,0.07958 0.07958,0.204639 h -0.723816 q -0.04358,-0.07769 -0.05684,-0.117478 -0.01326,-0.04169 -0.02653,-0.128847 -0.151585,0.1459 -0.301274,0.208429 -0.204639,0.08337 -0.475596,0.08337 -0.360013,0 -0.547599,-0.166743 -0.185691,-0.166742 -0.185691,-0.411172 0,-0.229272 0.134532,-0.377066 0.134531,-0.147795 0.496438,-0.219798 0.433911,-0.08716 0.562757,-0.121267 0.128847,-0.036 0.272852,-0.09285 0,-0.14211 -0.05874,-0.198954 -0.05874,-0.05684 -0.206533,-0.05684 -0.189481,0 -0.284221,0.06063 -0.0739,0.04737 -0.119373,0.178112 z m 0.668866,0.405488 q -0.159163,0.05684 -0.331591,0.100425 -0.234955,0.06253 -0.297484,0.123162 -0.06442,0.06253 -0.06442,0.142111 0,0.09095 0.06253,0.149689 0.06442,0.05684 0.187586,0.05684 0.128847,0 0.238745,-0.06253 0.111794,-0.06253 0.157269,-0.151585 0.04737,-0.09095 0.04737,-0.234955 z m 1.224045,-1.057301 h 0.721921 v 0.329696 q 0.104214,-0.214113 0.214113,-0.293694 0.111793,-0.08148 0.274747,-0.08148 0.170532,0 0.373276,0.106109 l -0.238745,0.549493 q -0.136426,-0.05684 -0.216008,-0.05684 -0.151584,0 -0.234956,0.125057 -0.119372,0.176217 -0.119372,0.659392 v 0.674551 h -0.774976 z m 3.281801,1.225939 0.733289,0.08337 q -0.06063,0.229272 -0.198954,0.397909 -0.138321,0.166743 -0.354329,0.259588 -0.214113,0.09285 -0.545703,0.09285 -0.320222,0 -0.534335,-0.05874 -0.212218,-0.06063 -0.365698,-0.19327 -0.153479,-0.134531 -0.24064,-0.314538 -0.08716,-0.180006 -0.08716,-0.47749 0,-0.310748 0.106109,-0.517282 0.07769,-0.151584 0.212218,-0.270957 0.134531,-0.121268 0.276642,-0.180007 0.225482,-0.09285 0.577915,-0.09285 0.492649,0 0.750343,0.176217 0.259588,0.176217 0.363802,0.515387 l -0.72571,0.09663 q -0.03411,-0.128847 -0.125057,-0.19327 -0.08906,-0.06632 -0.24064,-0.06632 -0.191375,0 -0.310748,0.138321 -0.117478,0.136426 -0.117478,0.414962 0,0.24822 0.117478,0.377067 0.117478,0.128846 0.299379,0.128846 0.151584,0 0.253904,-0.07769 0.104214,-0.07769 0.155374,-0.238745 z m 1.021301,-1.99144 h 0.771185 v 1.023195 q 0.157269,-0.162953 0.312643,-0.233061 0.155374,-0.07011 0.367592,-0.07011 0.314538,0 0.494544,0.191375 0.181901,0.191375 0.181901,0.58739 v 1.278993 h -0.774975 v -1.106566 q 0,-0.189481 -0.07011,-0.267168 -0.07011,-0.07958 -0.197059,-0.07958 -0.140216,0 -0.227377,0.106109 -0.08716,0.106109 -0.08716,0.380855 v 0.966351 h -0.771185 z m 3.944982,2.777784 V 22.37987 h 1.430578 q 0.397909,0 0.608232,0.06821 0.210323,0.06821 0.33917,0.253904 0.128847,0.183796 0.128847,0.449069 0,0.231166 -0.09853,0.399803 -0.09853,0.166743 -0.270957,0.270958 -0.109899,0.06632 -0.301274,0.109898 0.153479,0.05116 0.223587,0.10232 0.04737,0.03411 0.136426,0.1459 0.09095,0.111793 0.121267,0.172427 l 0.414962,0.805292 h -0.97014 l -0.458542,-0.848873 q -0.08716,-0.164848 -0.155374,-0.214113 -0.09285,-0.06442 -0.210324,-0.06442 h -0.07579 v 1.127409 z m 0.862136,-1.65227 h 0.361908 q 0.05874,0 0.227376,-0.0379 0.08527,-0.01705 0.138321,-0.08716 0.05495,-0.07011 0.05495,-0.161058 0,-0.134531 -0.08527,-0.206534 -0.08527,-0.072 -0.320222,-0.072 h -0.377066 z m 2.796731,0.2918 -0.737079,-0.07769 q 0.04169,-0.19327 0.119373,-0.303169 0.07958,-0.111793 0.227376,-0.19327 0.106109,-0.05874 0.2918,-0.09095 0.185691,-0.03221 0.401699,-0.03221 0.346749,0 0.557072,0.03979 0.210324,0.0379 0.350539,0.161058 0.09853,0.08527 0.155374,0.242535 0.05684,0.155374 0.05684,0.297485 v 0.888663 q 0,0.14211 0.01705,0.223587 0.01895,0.07958 0.07958,0.204639 H 76.99469 q -0.04358,-0.07769 -0.05684,-0.117478 -0.01326,-0.04169 -0.02653,-0.128847 -0.151585,0.1459 -0.301274,0.208429 -0.204639,0.08337 -0.475596,0.08337 -0.360013,0 -0.547599,-0.166743 -0.185691,-0.166742 -0.185691,-0.411172 0,-0.229272 0.134531,-0.377066 0.134532,-0.147795 0.496439,-0.219798 0.433911,-0.08716 0.562757,-0.121267 0.128847,-0.036 0.272852,-0.09285 0,-0.14211 -0.05874,-0.198954 -0.05874,-0.05684 -0.206533,-0.05684 -0.189481,0 -0.284221,0.06063 -0.0739,0.04737 -0.119373,0.178112 z m 0.668866,0.405488 q -0.159163,0.05684 -0.331591,0.100425 -0.234955,0.06253 -0.297484,0.123162 -0.06442,0.06253 -0.06442,0.142111 0,0.09095 0.06253,0.149689 0.06442,0.05684 0.187586,0.05684 0.128847,0 0.238745,-0.06253 0.111794,-0.06253 0.157269,-0.151585 0.04737,-0.09095 0.04737,-0.234955 z m 1.216464,-1.057301 h 0.718131 v 0.327801 q 0.161059,-0.200849 0.325907,-0.286115 0.164848,-0.08716 0.401698,-0.08716 0.320222,0 0.500229,0.191375 0.181901,0.189481 0.181901,0.58739 v 1.278993 h -0.774975 v -1.106566 q 0,-0.189481 -0.07011,-0.267168 -0.07011,-0.07958 -0.19706,-0.07958 -0.140215,0 -0.227376,0.106109 -0.08716,0.106109 -0.08716,0.380855 v 0.966351 h -0.771186 z m 3.988563,0 h 0.721921 v 1.900489 l 0.0019,0.08906 q 0,0.189481 -0.08148,0.360013 -0.07958,0.172427 -0.214113,0.278536 -0.132636,0.106109 -0.33917,0.153479 -0.204639,0.04737 -0.469911,0.04737 -0.606338,0 -0.833714,-0.181902 -0.225482,-0.181901 -0.225482,-0.486964 0,-0.0379 0.0038,-0.10232 l 0.748447,0.08527 q 0.02842,0.104215 0.08716,0.144005 0.08527,0.05874 0.214113,0.05874 0.166743,0 0.24822,-0.08906 0.08337,-0.08906 0.08337,-0.310748 v -0.305064 q -0.113688,0.134531 -0.227376,0.195165 -0.178112,0.09474 -0.384646,0.09474 -0.403593,0 -0.651813,-0.352433 -0.176216,-0.250115 -0.176216,-0.661287 0,-0.469912 0.227376,-0.716236 0.227377,-0.246325 0.594969,-0.246325 0.234956,0 0.38654,0.07958 0.153479,0.07958 0.286115,0.263378 z m -0.72571,0.975825 q 0,0.217902 0.09285,0.324011 0.09284,0.104215 0.244429,0.104215 0.144006,0 0.240641,-0.108004 0.09853,-0.109899 0.09853,-0.329696 0,-0.219798 -0.10232,-0.335381 -0.102319,-0.117478 -0.250114,-0.117478 -0.147795,0 -0.236851,0.108004 -0.08716,0.106109 -0.08716,0.354329 z m 4.147731,0.221692 h -1.546161 q 0.02084,0.185691 0.100425,0.276641 0.111793,0.130742 0.2918,0.130742 0.113688,0 0.216008,-0.05684 0.06253,-0.036 0.134531,-0.126952 l 0.759816,0.07011 q -0.174322,0.303168 -0.420646,0.435805 -0.246325,0.130741 -0.706762,0.130741 -0.399804,0 -0.629075,-0.111793 -0.229272,-0.113689 -0.380856,-0.358118 -0.14969,-0.246325 -0.14969,-0.577916 0,-0.471806 0.301274,-0.763606 0.303169,-0.2918 0.835609,-0.2918 0.432015,0 0.68213,0.130741 0.250114,0.130742 0.380855,0.378961 0.130742,0.24822 0.130742,0.646129 z m -0.784449,-0.369487 q -0.02274,-0.223587 -0.121268,-0.320222 -0.09663,-0.09664 -0.255798,-0.09664 -0.183796,0 -0.293695,0.1459 -0.07011,0.09095 -0.08906,0.270957 z"
       id="text8"
       aria-label="Monzo Search Range" />
  </g>
  <g
     inkscape:groupmode="layer"
     id="layer3"
     inkscape:label="components">
    <circle
       style="fill:#00ff00;stroke:#00ff00;stroke-width:0.264999"
       id="path7"
       cx="12.649768"
       cy="97.1325"
       r="2"
       inkscape:label="VIn" />
    <circle
       style="fill:#0000ff;stroke:#0000ff;stroke-width:0.264999"
       id="path12"
       cx="110.1325"
       cy="97.1325"
       r="2"
       inkscape:label="VOut" />
    <circle
       style="fill:#ff0000;stroke:#ff0000;stroke-width:0.264999"
       id="path13-6"
       cx="14.499999"
       cy="37.237709"
       r="2"
       inkscape:label="Pow2" />
    <circle
       style="fill:#ff0000;stroke:#ff0000;stroke-width:0.264999"
       id="path13"
       cx="28.5"
       cy="37.237709"
       r="2"
       inkscape:label="Pow3" />
    <circle
       style="fill:#ff0000;stroke:#ff0000;stroke-width:0.264999"
       id="path14"
       cx="42.5"
       cy="37.237709"
       r="2"
       inkscape:label="Pow5" />
    <circle
       style="fill:#ff0000;stroke:#ff0000;stroke-width:0.264999"
       id="path15"
       cx="56.5"
       cy="37.237709"
       r="2"
       inkscape:label="Pow7" />
    <circle
       style="fill:#ff0000;stroke:#ff0000;stroke-width:0.264999"
       id="path16"
       cx="70.5"
       cy="37.237709"
       r="2"
       inkscape:label="Pow11" />
    <circle
       style="fill:#ff0000;stroke:#ff0000;stroke-width:0.264999"
       id="path17"
       cx="84.5"
       cy="37.237709"
       r="2"
       inkscape:label="Pow13" />
    <circle
       style="fill:#ff0000;stroke:#ff0000;stroke-width:0.264999"
       id="path18"
       cx="98.499992"
       cy="37.237709"
       r="2"
       inkscape:label="Pow17" />
    <circle
       style="fill:#ff0000;stroke:#ff0000;stroke-width:0.264999"
       id="path19"
       cx="112.49999"
       cy="37.237709"
       r="2"
       inkscape:label="Pow19" />
    <circle
       style="fill:#ff00ff;stroke:#ff00ff;stroke-width:0.264999"
       id="path1"
       cx="109.20677"
       cy="24.1325"
       r="0.1" />
    <rect
       style="fill:#ffff00;stroke:#ffff00;stroke-width:0.21499"
       id="rect1"
       width="49.785007"
       height="49.785011"
       x="38.607494"
       y="61.796036" />
    <circle
       style="fill:#0000ff;stroke:#0000ff;stroke-width:0.264999"
       id="path12-4"
       cx="110.1325"
       cy="69.541336"
       r="2"
       inkscape:label="VOutRes" />
  </g>
</svg>
