<?xml version="1.0" encoding="UTF-8" standalone="no"?>
<!-- Created with Inkscape (http://www.inkscape.org/) -->

<svg
   width="50.799999mm"
   height="128.5mm"
   viewBox="0 0 50.799999 128.5"
   version="1.1"
   id="svg1"
   inkscape:version="1.3.2 (091e20e, 2023-11-25, custom)"
   sodipodi:docname="XLimitJIVCO-dark.svg"
   xmlns:inkscape="http://www.inkscape.org/namespaces/inkscape"
   xmlns:sodipodi="http://sodipodi.sourceforge.net/DTD/sodipodi-0.dtd"
   xmlns="http://www.w3.org/2000/svg"
   xmlns:svg="http://www.w3.org/2000/svg">
  <sodipodi:namedview
     id="namedview1"
     pagecolor="#ffffff"
     bordercolor="#000000"
     borderopacity="0.25"
     inkscape:showpageshadow="2"
     inkscape:pageopacity="0.0"
     inkscape:pagecheckerboard="0"
     inkscape:deskcolor="#d1d1d1"
     inkscape:document-units="mm"
     inkscape:zoom="1.7604572"
     inkscape:cx="73.276419"
     inkscape:cy="281.46098"
     inkscape:window-width="1920"
     inkscape:window-height="1111"
     inkscape:window-x="-9"
     inkscape:window-y="-9"
     inkscape:window-maximized="1"
     inkscape:current-layer="layer1" />
  <defs
     id="defs1">
    <inkscape:perspective
       sodipodi:type="inkscape:persp3d"
       inkscape:vp_x="27.162295 : 15.662003 : 1"
       inkscape:vp_y="0 : 93.2856 : 0"
       inkscape:vp_z="48.323212 : 15.662003 : 1"
       inkscape:persp3d-origin="37.742754 : 13.664133 : 1"
       id="perspective79-5" />
  </defs>
  <g
     inkscape:groupmode="layer"
     id="layer3"
     inkscape:label="components">
    <circle
       style="fill:#00ff00;stroke:#00ff00;stroke-width:0.264999"
       id="path15"
       cx="14.132"
       cy="34.1325"
       r="2"
       inkscape:label="Sync" />
    <circle
       style="fill:#00ff00;stroke:#00ff00;stroke-width:0.264999"
       id="path15-1"
       cx="14.1325"
       cy="63.1325"
       r="2"
       inkscape:label="VOctRes" />
    <circle
       style="fill:#00ff00;stroke:#00ff00;stroke-width:0.264999"
       id="path15-4"
       cx="14.1325"
       cy="92.1325"
       r="2"
       inkscape:label="VOct" />
    <circle
       style="fill:#0000ff;stroke:#0000ff;stroke-width:0.264999"
       id="path18"
       cx="36.795998"
       cy="34.1325"
       r="2"
       inkscape:label="Sin" />
    <circle
       style="fill:#0000ff;stroke:#0000ff;stroke-width:0.264999"
       id="path18-3"
       cx="36.795498"
       cy="53.432499"
       r="2"
       inkscape:label="Tri" />
    <circle
       style="fill:#0000ff;stroke:#0000ff;stroke-width:0.264999"
       id="path18-33"
       cx="36.795498"
       cy="72.732498"
       r="2"
       inkscape:label="Saw" />
    <circle
       style="fill:#0000ff;stroke:#0000ff;stroke-width:0.264999"
       id="path18-6"
       cx="36.795498"
       cy="92.1325"
       r="2"
       inkscape:label="Sqr" />
  </g>
  <g
     inkscape:label="Background"
     inkscape:groupmode="layer"
     id="layer1">
    <rect
       style="fill:#110019;stroke:#000000;stroke-width:0.264999;fill-opacity:1"
       id="rect1"
       width="67.792931"
       height="144.42842"
       x="-10.316316"
       y="-8.3513031"
       rx="2"
       ry="2" />
    <g
       id="g132"
       style="fill:#ffffff;stroke:#000000;stroke-width:1.00157"
       transform="translate(-42.004,-2.8820067)"
       inkscape:label="VsWorldLogo">
      <rect
         style="fill:#333333;stroke:#000000;stroke-width:0.430126"
         id="rect4"
         width="5.2779541"
         height="4.8451529"
         x="37.387913"
         y="116.38544"
         rx="1.2037843"
         transform="translate(42.004,2.8820067)" />
      <path
         d="m 82.020627,120.22667 1.431452,0.34262 v 1.56102 l -1.431452,-0.55254 z"
         style="fill:#000000;fill-rule:evenodd;stroke:#000000;stroke-linejoin:round"
         id="path4" />
      <path
         d="m 80.500785,120.57595 v 1.56509 l 1.519842,-0.56327 v -1.3511 z"
         style="fill:#000000;fill-rule:evenodd;stroke:#333333;stroke-width:1.10182;stroke-linejoin:round"
         id="path5" />
      <path
         d="m 80.500785,122.14104 1.419571,0.76011 1.531723,-0.77084 -1.431452,-0.55254 z"
         style="fill:#000000;fill-rule:evenodd;stroke:#000000;stroke-linejoin:round"
         id="path6" />
      <path
         d="m 80.500785,120.57595 1.419571,0.47134 1.531723,-0.478 -1.431452,-0.34262 z"
         style="fill:#ffffff;fill-rule:evenodd;stroke:#000000;stroke-linejoin:round"
         id="path8" />
      <path
         d="m 81.920356,121.04729 v 1.85386 l 1.531723,-0.77084 v -1.56102 z"
         style="fill:#aa00ff;stroke:#000000;fill-opacity:1"
         id="path9" />
      <path
         d="m 80.500785,120.57595 1.419571,0.47134 v 1.85386 l -1.419571,-0.76011 z"
         style="fill:#ffaa00;stroke:#000000;fill-opacity:1"
         id="path10" />
      <path
         style="font-weight:900;font-size:4.9389px;font-family:Arial;-inkscape-font-specification:'Arial, Heavy';fill:#ffffff;stroke:#000000;stroke-width:0.265;stroke-opacity:1"
         d="m 6.0467171,117.1325 h 1.143085 l 0.7958192,2.54421 0.783761,-2.54421 h 1.109323 l -1.311895,3.53536 H 7.3827281 Z m 4.0345599,0 h 0.979098 v 0.5836 l -0.15434,0.71624 h -0.665594 l -0.159164,-0.71624 z m 1.290191,2.82636 0.974275,-0.0916 q 0.06029,0.17363 0.16881,0.24839 0.108521,0.0748 0.289389,0.0748 0.197749,0 0.30627,-0.0844 0.0844,-0.0627 0.0844,-0.15676 0,-0.1061 -0.110933,-0.16398 -0.07958,-0.041 -0.422025,-0.10129 -0.511253,-0.0892 -0.711414,-0.16399 -0.197749,-0.0772 -0.335208,-0.25803 -0.135048,-0.18087 -0.135048,-0.41238 0,-0.25322 0.147106,-0.4365 0.147106,-0.18328 0.405144,-0.2725 0.258038,-0.0916 0.692121,-0.0916 0.458199,0 0.67524,0.0699 0.219453,0.0699 0.364148,0.21704 0.147106,0.14711 0.243569,0.39791 l -0.930867,0.0916 q -0.03617,-0.12299 -0.120579,-0.18087 -0.115755,-0.0772 -0.279742,-0.0772 -0.166399,0 -0.243569,0.0603 -0.07476,0.0579 -0.07476,0.14229 0,0.094 0.09646,0.14228 0.09646,0.0482 0.419614,0.0868 0.489549,0.0555 0.728294,0.15434 0.238746,0.0989 0.364148,0.28215 0.127813,0.18328 0.127813,0.40273 0,0.22187 -0.135048,0.43167 -0.132636,0.20981 -0.422025,0.33521 -0.286977,0.12299 -0.783761,0.12299 -0.701768,0 -1.000803,-0.20016 -0.296623,-0.20016 -0.381028,-0.56913 z m 4.538579,-2.82636 h 1.036976 l 0.373794,1.97508 0.545015,-1.97508 h 1.034565 l 0.547427,1.97508 0.373793,-1.97508 h 1.032153 l -0.778937,3.53536 h -1.070739 l -0.619774,-2.22588 -0.617362,2.22588 H 16.69622 Z m 4.989543,2.26205 q 0,-0.58601 0.395498,-0.96463 0.395498,-0.38102 1.068327,-0.38102 0.769291,0 1.162377,0.44614 0.315916,0.35932 0.315916,0.88504 0,0.59084 -0.393086,0.96946 -0.390675,0.3762 -1.082796,0.3762 -0.617362,0 -0.998391,-0.3135 -0.467845,-0.38827 -0.467845,-1.01769 z m 0.983922,-0.002 q 0,0.34244 0.137459,0.50643 0.139872,0.16399 0.349678,0.16399 0.212219,0 0.347267,-0.16158 0.137459,-0.16157 0.137459,-0.51848 0,-0.3328 -0.137459,-0.49438 -0.13746,-0.16398 -0.340032,-0.16398 -0.21463,0 -0.354501,0.16639 -0.139871,0.16399 -0.139871,0.50161 z m 2.440512,-1.28537 h 0.918809 v 0.41962 q 0.132636,-0.27251 0.272507,-0.3738 0.142283,-0.10369 0.349678,-0.10369 0.217042,0 0.47508,0.13504 l -0.303858,0.69936 q -0.173633,-0.0724 -0.274919,-0.0724 -0.192926,0 -0.299035,0.15917 -0.151929,0.22427 -0.151929,0.83922 v 0.85852 h -0.986333 z m 2.380221,-0.97427 h 0.983922 v 3.53536 h -0.983922 z m 4.307067,0 v 3.53536 h -0.918809 v -0.37861 q -0.192925,0.24115 -0.352089,0.32556 -0.212219,0.11093 -0.472668,0.11093 -0.523311,0 -0.800642,-0.39791 -0.27492,-0.39791 -0.27492,-0.96704 0,-0.63665 0.303859,-0.97427 0.306269,-0.33762 0.776526,-0.33762 0.229099,0 0.41479,0.0772 0.188103,0.0772 0.332797,0.23151 v -1.22508 z m -0.983921,2.24758 q 0,-0.30144 -0.127813,-0.44855 -0.127814,-0.14952 -0.323151,-0.14952 -0.171222,0 -0.286977,0.14229 -0.115756,0.14228 -0.115756,0.47749 0,0.3135 0.118167,0.46061 0.120579,0.14469 0.296624,0.14469 0.188102,0 0.313504,-0.1471 0.125402,-0.14711 0.125402,-0.47991 z"
         id="text5"
         aria-label="V's World"
         inkscape:label="VsWorld"
         transform="translate(45,2.8820067)" />
    </g>
    <rect
       style="fill:#ffaa00;stroke:#000000;stroke-width:0.264999;stroke-opacity:1;fill-opacity:1"
       id="rect3-7"
       width="106.54959"
       height="3.0333066"
       x="-137.49899"
       y="39.699413"
       transform="rotate(-42.378706)" />
    <rect
       style="fill:#ffaa00;stroke:#000000;stroke-width:0.264999;stroke-opacity:1;fill-opacity:1"
       id="rect3-3"
       width="106.54959"
       height="3.0333066"
       x="-147.60942"
       y="50.779995"
       transform="rotate(-42.378706)" />
    <rect
       style="fill:#ffaa00;stroke:#000000;stroke-width:0.264999;stroke-opacity:1;fill-opacity:1"
       id="rect3-30"
       width="106.54959"
       height="3.0333066"
       x="-157.71983"
       y="61.860592"
       transform="rotate(-42.378706)" />
    <rect
       style="fill:#ffaa00;stroke:#000000;stroke-width:0.264999;stroke-opacity:1;fill-opacity:1"
       id="rect3"
       width="106.54959"
       height="3.0333066"
       x="-61.80542"
       y="5.701869"
       transform="rotate(-42.378706)" />
    <rect
       style="fill:#000000;stroke:#aa00ff;stroke-width:0.264999;fill-opacity:1;stroke-opacity:1"
       id="rect2"
       width="20"
       height="80"
       x="4.1324997"
       y="27.1325"
       rx="2"
       ry="2" />
    <rect
       style="fill:#333333;fill-opacity:1;stroke:#ffaa00;stroke-width:0.264999;stroke-opacity:1"
       id="rect2-9"
       width="20"
       height="80"
       x="26.932499"
       y="27.1325"
       rx="2"
       ry="2" />
  </g>
  <g
     inkscape:groupmode="layer"
     id="layer2"
     inkscape:label="Text">
    <path
       style="font-weight:900;font-size:4.9389px;font-family:Arial;-inkscape-font-specification:'Arial, Heavy';text-align:center;text-anchor:middle;stroke:#000000;stroke-width:0.265;fill:#ffffff;stroke-opacity:1"
       d="M 5.9579321,5.6927892 H 7.1613066 L 7.7883154,6.7804083 8.3960316,5.6927892 H 9.5873483 L 8.4876714,7.4050056 9.6910459,9.2281542 H 8.4635556 L 7.7666113,8.0923036 7.0672553,9.2281542 H 5.8469997 L 7.0672553,7.385713 Z m 3.8319882,1.866557 H 11.217571 V 8.3189914 H 9.7899203 Z m 1.8979077,-1.866557 h 1.092442 v 2.6647874 h 1.704981 v 0.8705776 h -2.797423 z m 3.265269,0 h 0.98151 v 0.6680056 h -0.98151 z m 0,0.9742752 h 0.98151 v 2.5610898 h -0.98151 z m 1.615753,0 h 0.916398 v 0.3737937 q 0.197749,-0.2339225 0.397909,-0.3327969 0.202572,-0.098874 0.487138,-0.098874 0.306269,0 0.484726,0.1085208 0.178456,0.1085207 0.2918,0.3231506 0.231511,-0.2508035 0.422025,-0.3400316 0.190514,-0.09164 0.470257,-0.09164 0.412379,0 0.64389,0.2459804 0.231511,0.2435688 0.231511,0.7644684 V 9.2281542 H 19.930582 V 7.769153 q 0,-0.1736332 -0.06752,-0.2580383 -0.09887,-0.1326364 -0.24598,-0.1326364 -0.173634,0 -0.279743,0.1254017 -0.106109,0.1254018 -0.106109,0.4027326 V 9.2281542 H 18.247305 V 7.8173844 q 0,-0.16881 -0.01929,-0.2290994 -0.03135,-0.096463 -0.108521,-0.1543406 -0.07717,-0.060289 -0.180868,-0.060289 -0.16881,0 -0.27733,0.1278133 -0.108521,0.1278134 -0.108521,0.4196136 V 9.2281542 H 16.56885 Z m 4.967839,-0.9742752 h 0.98151 v 0.6680056 h -0.98151 z m 0,0.9742752 h 0.98151 v 2.5610898 h -0.98151 z M 24.32929,5.6927892 v 0.9742752 h 0.540192 v 0.716237 H 24.32929 v 0.9091627 q 0,0.163987 0.03135,0.2170415 0.04823,0.081993 0.16881,0.081993 0.108521,0 0.303859,-0.062701 l 0.07235,0.6776518 q -0.364148,0.079582 -0.680064,0.079582 -0.366559,0 -0.540192,-0.094051 -0.173633,-0.094051 -0.258038,-0.2845655 -0.08199,-0.1929258 -0.08199,-0.6221857 v -0.901928 h -0.361735 v -0.716237 h 0.361735 V 6.1968078 Z m 4.191311,0 h 1.094854 v 1.9220231 q 0,0.6053047 -0.10852,0.9212206 -0.10611,0.315916 -0.431672,0.5353691 -0.323151,0.2194531 -0.829581,0.2194531 -0.535369,0 -0.829581,-0.1446944 Q 27.12189,9.0014664 26.960314,8.7241356 26.80115,8.4443932 26.772212,8.0344259 l 1.04421,-0.1422828 q 0.0024,0.2339226 0.041,0.3472665 0.03859,0.1133439 0.130225,0.1832794 0.0627,0.04582 0.178456,0.04582 0.18328,0 0.267685,-0.135048 0.08682,-0.1374596 0.08682,-0.4606103 z m 1.866558,0 h 1.094854 v 3.535365 h -1.094854 z m 3.17604,0 h 1.143085 l 0.795819,2.5442088 0.783761,-2.5442088 h 1.109323 l -1.311895,3.535365 H 34.89921 Z m 6.376197,2.0908332 0.957395,0.2893887 q -0.09646,0.4027325 -0.303858,0.6728286 -0.207396,0.2700961 -0.516077,0.4075557 -0.30627,0.1374597 -0.781349,0.1374597 -0.576366,0 -0.942925,-0.1663985 -0.364148,-0.1688101 -0.62942,-0.5908352 -0.265273,-0.4220252 -0.265273,-1.0803844 0,-0.8778123 0.465433,-1.3480689 0.467845,-0.4726682 1.321542,-0.4726682 0.668005,0 1.049034,0.2700961 0.38344,0.2700961 0.569131,0.8295809 L 39.8984,6.9468068 Q 39.847757,6.7852315 39.792291,6.7104727 39.700651,6.585071 39.568014,6.517547 q -0.132636,-0.067524 -0.296623,-0.067524 -0.371382,0 -0.569131,0.299035 -0.149518,0.2218646 -0.149518,0.6969444 0,0.5884236 0.178457,0.8078767 0.178456,0.2170415 0.501607,0.2170415 0.313504,0 0.472668,-0.1760448 0.161575,-0.1760448 0.233922,-0.5112533 z m 1.350483,-0.3207391 q 0,-0.8657545 0.482314,-1.3480689 0.482315,-0.4823145 1.343246,-0.4823145 0.882636,0 1.360127,0.4750798 0.477491,0.4726681 0.477491,1.3263647 0,0.6197741 -0.209807,1.0176835 -0.207395,0.3954979 -0.602893,0.6173625 -0.393086,0.2194531 -0.98151,0.2194531 -0.598069,0 -0.991156,-0.1905142 Q 41.777017,8.9074151 41.533448,8.4950362 41.289879,8.0826574 41.289879,7.4628833 Z m 1.092442,0.00482 q 0,0.5353691 0.197749,0.7692916 0.200161,0.2339225 0.542604,0.2339225 0.352089,0 0.545015,-0.2290994 0.192926,-0.2290993 0.192926,-0.8223461 0,-0.4991955 -0.202572,-0.7282948 -0.200161,-0.231511 -0.545015,-0.231511 -0.330386,0 -0.530546,0.2339225 -0.200161,0.2339225 -0.200161,0.7741147 z"
       id="text1"
       inkscape:label="Title"
       aria-label="X-Limit JI VCO" />
    <path
       style="font-weight:900;font-size:3.88056px;font-family:Arial;-inkscape-font-specification:'Arial, Heavy';text-align:center;text-anchor:middle;stroke:#000000;stroke-width:0.265;fill:#ffffff"
       d="m 12.356,22.753794 h 0.860241 v 2.777784 H 12.356 Z m 1.424893,0.765502 h 0.718131 v 0.327801 q 0.161058,-0.20085 0.325906,-0.286116 0.164848,-0.08716 0.401699,-0.08716 0.320222,0 0.500228,0.191375 0.181901,0.189481 0.181901,0.58739 v 1.278993 h -0.774975 v -1.106566 q 0,-0.18948 -0.07011,-0.267167 -0.07011,-0.07958 -0.197059,-0.07958 -0.140216,0 -0.227377,0.106109 -0.08716,0.106109 -0.08716,0.380856 v 0.96635 h -0.771185 z"
       id="text2"
       aria-label="In" />
    <path
       style="font-weight:900;font-size:3.88056px;font-family:Arial;-inkscape-font-specification:'Arial, Heavy';text-align:center;text-anchor:middle;stroke:#000000;stroke-width:0.265;fill:#ffffff"
       d="m 33.164999,24.491949 q 0,-0.680235 0.378961,-1.059195 0.378961,-0.378961 1.055407,-0.378961 0.693498,0 1.068669,0.373276 0.375172,0.371382 0.375172,1.042143 0,0.486964 -0.164848,0.799607 -0.162954,0.310748 -0.473701,0.48507 -0.308854,0.172427 -0.771186,0.172427 -0.469912,0 -0.778765,-0.149689 -0.306958,-0.14969 -0.498333,-0.473701 -0.191376,-0.324012 -0.191376,-0.810977 z m 0.858347,0.0038 q 0,0.420647 0.155374,0.604443 0.157269,0.183796 0.426331,0.183796 0.276641,0 0.428226,-0.180007 0.151584,-0.180006 0.151584,-0.646128 0,-0.392225 -0.159163,-0.572231 -0.157269,-0.181901 -0.428226,-0.181901 -0.259589,0 -0.416857,0.183796 -0.157269,0.183796 -0.157269,0.608232 z m 4.551321,1.383207 H 37.854641 V 25.55304 q -0.161058,0.200849 -0.325906,0.286115 -0.162954,0.08527 -0.401699,0.08527 -0.318327,0 -0.500228,-0.189481 -0.180007,-0.191375 -0.180007,-0.587389 v -1.280888 h 0.774975 v 1.106566 q 0,0.18948 0.07011,0.269062 0.07011,0.07958 0.19706,0.07958 0.13832,0 0.225481,-0.106109 0.08906,-0.106109 0.08906,-0.380856 v -0.968245 h 0.771186 z m 1.398366,-2.777783 v 0.765501 h 0.424436 v 0.562757 h -0.424436 v 0.714341 q 0,0.128847 0.02463,0.170533 0.0379,0.06442 0.132636,0.06442 0.08527,0 0.238746,-0.04926 l 0.05684,0.53244 q -0.286116,0.06253 -0.534335,0.06253 -0.28801,0 -0.424436,-0.0739 -0.136426,-0.0739 -0.202744,-0.223587 -0.06442,-0.151584 -0.06442,-0.488859 v -0.708657 h -0.28422 v -0.562757 h 0.28422 v -0.369487 z"
       id="text3"
       aria-label="Out" />
    <path
       style="font-weight:900;font-size:3.88056px;font-family:Arial;-inkscape-font-specification:'Arial, Heavy';text-align:center;text-anchor:middle;fill:#ffffff;stroke:#333333;stroke-width:0.265"
       d="m 33.635,42.038673 0.816661,-0.05116 q 0.02653,0.198955 0.108004,0.303169 0.132636,0.168637 0.378961,0.168637 0.183796,0 0.282326,-0.08527 0.100424,-0.08716 0.100424,-0.200849 0,-0.108004 -0.09474,-0.19327 -0.09474,-0.08527 -0.439595,-0.161059 -0.564651,-0.126951 -0.805292,-0.337275 -0.242535,-0.210323 -0.242535,-0.536229 0,-0.214113 0.123163,-0.403594 0.125057,-0.191375 0.373276,-0.299379 0.250115,-0.109899 0.684025,-0.109899 0.53244,0 0.810976,0.198955 0.280431,0.197059 0.333486,0.629075 l -0.809082,0.04737 q -0.03221,-0.187586 -0.136426,-0.272852 -0.102319,-0.08527 -0.28422,-0.08527 -0.14969,0 -0.225482,0.06442 -0.07579,0.06253 -0.07579,0.15348 0,0.06632 0.06253,0.119372 0.06063,0.05495 0.28801,0.10232 0.562757,0.121267 0.805292,0.246324 0.24443,0.123163 0.354329,0.306959 0.111793,0.183796 0.111793,0.411172 0,0.267168 -0.147794,0.492649 -0.147795,0.225482 -0.413068,0.34296 -0.265272,0.115583 -0.668866,0.115583 -0.708657,0 -0.981509,-0.272852 Q 33.671002,42.459319 33.635,42.038673 Z m 2.929368,-1.858804 h 0.771186 v 0.524861 h -0.771186 z m 0,0.765502 h 0.771186 v 2.012282 h -0.771186 z m 1.263835,0 h 0.718131 v 0.327801 q 0.161058,-0.20085 0.325906,-0.286116 0.164848,-0.08716 0.401699,-0.08716 0.320222,0 0.500228,0.191375 0.181901,0.189481 0.181901,0.58739 v 1.278993 h -0.774975 v -1.106566 q 0,-0.18948 -0.07011,-0.267167 -0.07011,-0.07958 -0.197059,-0.07958 -0.140216,0 -0.227377,0.106109 -0.08716,0.106109 -0.08716,0.380856 v 0.96635 h -0.771185 z"
       id="text4"
       aria-label="Sin" />
    <path
       style="font-weight:900;font-size:3.88056px;font-family:Arial;-inkscape-font-specification:'Arial, Heavy';text-align:center;text-anchor:middle;fill:#ffffff;stroke:#333333;stroke-width:0.265"
       d="m 34.144498,59.432502 h 2.609146 v 0.685919 h -0.875399 v 2.091864 h -0.858347 v -2.091864 h -0.8754 z m 2.787258,0.765501 h 0.72192 v 0.329696 q 0.104215,-0.214113 0.214113,-0.293695 0.111794,-0.08148 0.274747,-0.08148 0.170532,0 0.373277,0.106109 l -0.238746,0.549494 q -0.136426,-0.05684 -0.216008,-0.05684 -0.151584,0 -0.234955,0.125057 -0.119373,0.176217 -0.119373,0.659392 v 0.67455 h -0.774975 z m 1.74322,-0.765501 h 0.771186 v 0.52486 h -0.771186 z m 0,0.765501 h 0.771186 v 2.012282 h -0.771186 z"
       id="text6"
       aria-label="Tri"
       inkscape:label="text6" />
    <path
       style="font-weight:900;font-size:3.88056px;font-family:Arial;-inkscape-font-specification:'Arial, Heavy';text-align:center;text-anchor:middle;fill:#ffffff;stroke:#333333;stroke-width:0.265"
       d="m 32.332502,80.638675 0.816661,-0.05116 q 0.02653,0.198955 0.108003,0.303169 0.132637,0.168638 0.378961,0.168638 0.183796,0 0.282326,-0.08527 0.100425,-0.08716 0.100425,-0.20085 0,-0.108004 -0.09474,-0.19327 -0.09474,-0.08527 -0.439595,-0.161058 -0.564652,-0.126952 -0.805292,-0.337275 -0.242535,-0.210324 -0.242535,-0.53623 0,-0.214113 0.123162,-0.403594 0.125057,-0.191375 0.373277,-0.299379 0.250114,-0.109898 0.684024,-0.109898 0.53244,0 0.810977,0.198954 0.280431,0.19706 0.333485,0.629075 l -0.809081,0.04737 q -0.03221,-0.187585 -0.136426,-0.272852 -0.10232,-0.08527 -0.284221,-0.08527 -0.149689,0 -0.225482,0.06442 -0.07579,0.06253 -0.07579,0.153479 0,0.06632 0.06253,0.119372 0.06063,0.05495 0.28801,0.10232 0.562757,0.121267 0.805292,0.246325 0.24443,0.123162 0.354328,0.306958 0.111794,0.183796 0.111794,0.411173 0,0.267167 -0.147795,0.492649 -0.147795,0.225481 -0.413067,0.342959 -0.265273,0.115583 -0.668866,0.115583 -0.708657,0 -0.981509,-0.272851 -0.272852,-0.272852 -0.308853,-0.693499 z m 3.603918,-0.441489 -0.737079,-0.07769 q 0.04169,-0.19327 0.119373,-0.303169 0.07958,-0.111794 0.227376,-0.19327 0.10611,-0.05874 0.2918,-0.09095 0.185691,-0.03221 0.401699,-0.03221 0.346749,0 0.557073,0.03979 0.210323,0.0379 0.350538,0.161059 0.09853,0.08527 0.155374,0.242535 0.05685,0.155374 0.05685,0.297484 v 0.888663 q 0,0.142111 0.01705,0.223587 0.01895,0.07958 0.07958,0.204639 h -0.723816 q -0.04358,-0.07769 -0.05684,-0.117478 -0.01326,-0.04169 -0.02653,-0.128846 -0.151585,0.1459 -0.301274,0.208428 -0.204639,0.08337 -0.475596,0.08337 -0.360013,0 -0.547599,-0.166743 -0.185691,-0.166743 -0.185691,-0.411173 0,-0.229271 0.134532,-0.377066 0.134531,-0.147795 0.496438,-0.219797 0.433911,-0.08716 0.562757,-0.121268 0.128847,-0.036 0.272852,-0.09284 0,-0.142111 -0.05874,-0.198955 -0.05874,-0.05684 -0.206533,-0.05684 -0.189481,0 -0.284221,0.06063 -0.0739,0.04737 -0.119373,0.178112 z m 0.668866,0.405488 q -0.159163,0.05684 -0.331591,0.100424 -0.234955,0.06253 -0.297484,0.123163 -0.06442,0.06253 -0.06442,0.14211 0,0.09095 0.06253,0.14969 0.06442,0.05684 0.187586,0.05684 0.128847,0 0.238745,-0.06253 0.111794,-0.06253 0.157269,-0.151584 0.04737,-0.09095 0.04737,-0.234956 z m 0.989088,-1.057301 h 0.746554 l 0.324011,1.267624 0.409278,-1.267624 h 0.695393 l 0.424436,1.267624 0.324012,-1.267624 h 0.740869 l -0.740869,2.012282 h -0.685919 l -0.407383,-1.21078 -0.39412,1.21078 h -0.689708 z"
       id="text7"
       aria-label="Saw" />
    <path
       style="font-weight:900;font-size:3.88056px;font-family:Arial;-inkscape-font-specification:'Arial, Heavy';text-align:center;text-anchor:middle;fill:#ffffff;stroke:#333333;stroke-width:0.265"
       d="m 33.255,100.03868 0.816661,-0.05116 q 0.02653,0.198953 0.108004,0.303173 0.132636,0.16863 0.378961,0.16863 0.183796,0 0.282326,-0.0853 0.100424,-0.0872 0.100424,-0.20085 0,-0.10801 -0.09474,-0.193272 -0.09474,-0.08527 -0.439595,-0.161059 -0.564652,-0.126952 -0.805292,-0.337275 -0.242535,-0.210323 -0.242535,-0.53623 0,-0.214113 0.123163,-0.403593 0.125057,-0.191375 0.373276,-0.299379 0.250114,-0.109899 0.684025,-0.109899 0.53244,0 0.810976,0.198955 0.280431,0.197059 0.333486,0.629075 l -0.809082,0.04737 q -0.03221,-0.187586 -0.136426,-0.272852 -0.102319,-0.08527 -0.284221,-0.08527 -0.149689,0 -0.225481,0.06442 -0.07579,0.06253 -0.07579,0.153479 0,0.06632 0.06253,0.119373 0.06063,0.05495 0.28801,0.102319 0.562757,0.121268 0.805292,0.246325 0.24443,0.123162 0.354329,0.306958 0.111793,0.183796 0.111793,0.411178 0,0.26716 -0.147795,0.49264 -0.147794,0.22549 -0.413067,0.34296 -0.265273,0.11559 -0.668866,0.11559 -0.708657,0 -0.981509,-0.27285 -0.272852,-0.27286 -0.308853,-0.6935 z m 5.019338,1.68448 h -0.778765 v -0.96067 q -0.113688,0.11937 -0.261483,0.18001 -0.1459,0.0606 -0.325907,0.0606 -0.367592,0 -0.608232,-0.26338 -0.24064,-0.26527 -0.24064,-0.757918 0,-0.329696 0.109899,-0.581705 0.109898,-0.252009 0.305063,-0.375171 0.195165,-0.125057 0.430121,-0.125057 0.202744,0 0.373276,0.08906 0.125057,0.06632 0.274747,0.253904 v -0.297485 h 0.721921 z M 37.501257,99.9572 q 0,-0.259588 -0.09853,-0.375171 -0.09663,-0.115583 -0.246324,-0.115583 -0.138321,0 -0.233061,0.115583 -0.09285,0.113688 -0.09285,0.38275 0,0.240641 0.09095,0.352431 0.09284,0.1099 0.225482,0.1099 0.155374,0 0.253904,-0.11558 0.100424,-0.11558 0.100424,-0.35433 z m 1.250571,-1.011826 h 0.721921 v 0.329696 q 0.104214,-0.214113 0.214113,-0.293694 0.111793,-0.08148 0.274747,-0.08148 0.170532,0 0.373276,0.106109 l -0.238745,0.549493 q -0.136426,-0.05684 -0.216008,-0.05684 -0.151584,0 -0.234956,0.125057 -0.119372,0.176217 -0.119372,0.659396 v 0.67455 h -0.774976 z"
       id="text8"
       aria-label="Sqr" />
    <path
       style="font-weight:900;font-size:3.88056px;font-family:Arial;-inkscape-font-specification:'Arial, Heavy';text-align:center;text-anchor:middle;stroke:#000000;stroke-width:0.265;fill:#ffffff"
       d="m 8.3705002,98.179873 h 0.8981374 l 0.6252856,1.999017 0.6158118,-1.999017 h 0.87161 l -1.030774,2.777787 H 9.420222 Z m 3.7043428,-0.04737 h 0.39412 l -0.697288,2.870627 h -0.39033 z m 0.558968,1.438157 q 0,-0.680235 0.378961,-1.059196 0.378961,-0.378961 1.055406,-0.378961 0.693498,0 1.06867,0.373277 0.375171,0.371381 0.375171,1.042142 0,0.486968 -0.164848,0.799608 -0.162953,0.31075 -0.473701,0.48507 -0.308853,0.17243 -0.771186,0.17243 -0.469911,0 -0.778764,-0.14969 -0.306959,-0.14969 -0.498334,-0.4737 -0.191375,-0.32402 -0.191375,-0.81098 z m 0.858346,0.0038 q 0,0.420647 0.155374,0.604441 0.157269,0.1838 0.426331,0.1838 0.276642,0 0.428226,-0.18001 0.151584,-0.18 0.151584,-0.646127 0,-0.392224 -0.159163,-0.572231 -0.157269,-0.181901 -0.428226,-0.181901 -0.259588,0 -0.416857,0.183796 -0.157269,0.183796 -0.157269,0.608232 z m 3.93172,0.596861 0.733289,0.0834 q -0.06063,0.22928 -0.198954,0.39791 -0.138321,0.16675 -0.354329,0.25959 -0.214113,0.0928 -0.545703,0.0928 -0.320222,0 -0.534335,-0.0587 -0.212218,-0.0606 -0.365698,-0.19327 -0.153479,-0.13453 -0.24064,-0.31454 -0.08716,-0.18001 -0.08716,-0.47749 0,-0.310748 0.106109,-0.517282 0.07769,-0.151584 0.212218,-0.270957 0.134531,-0.121268 0.276642,-0.180007 0.225482,-0.09284 0.577915,-0.09284 0.492649,0 0.750343,0.176217 0.259588,0.176217 0.363802,0.515387 l -0.72571,0.09663 q -0.03411,-0.128847 -0.125057,-0.19327 -0.08906,-0.06632 -0.24064,-0.06632 -0.191375,0 -0.310748,0.13832 -0.117478,0.136426 -0.117478,0.414962 0,0.248218 0.117478,0.377068 0.117478,0.12885 0.299379,0.12885 0.151584,0 0.253904,-0.0777 0.104214,-0.0777 0.155374,-0.23875 z m 2.017967,-1.991437 v 0.765501 h 0.424436 v 0.562757 h -0.424436 v 0.714339 q 0,0.12885 0.02463,0.17054 0.0379,0.0644 0.132636,0.0644 0.08527,0 0.238745,-0.0493 l 0.05684,0.53244 q -0.286116,0.0625 -0.534335,0.0625 -0.288011,0 -0.424437,-0.0739 -0.136426,-0.0739 -0.202744,-0.22358 -0.06442,-0.15159 -0.06442,-0.48886 v -0.708659 h -0.284221 v -0.562757 h 0.284221 v -0.369487 z"
       id="text10"
       aria-label="V/Oct&#10;" />
    <path
       style="font-weight:900;font-size:3.88056px;font-family:Arial;-inkscape-font-specification:'Arial, Heavy';text-align:center;text-anchor:middle;stroke:#000000;stroke-width:0.265;fill:#ffffff"
       d="m 9.0854996,42.038673 0.8166608,-0.05116 q 0.026527,0.198955 0.1080036,0.303169 0.132637,0.168637 0.378961,0.168637 0.183796,0 0.282326,-0.08527 0.100425,-0.08716 0.100425,-0.200849 0,-0.108004 -0.09474,-0.19327 -0.09474,-0.08527 -0.439595,-0.161059 -0.564652,-0.126951 -0.8052921,-0.337275 -0.242535,-0.210323 -0.242535,-0.536229 0,-0.214113 0.1231623,-0.403594 0.1250571,-0.191375 0.3732765,-0.299379 0.2501142,-0.109899 0.6840243,-0.109899 0.53244,0 0.810977,0.198955 0.280431,0.197059 0.333485,0.629075 l -0.809081,0.04737 q -0.03221,-0.187586 -0.136426,-0.272852 -0.10232,-0.08527 -0.284221,-0.08527 -0.14969,0 -0.225482,0.06442 -0.075792,0.06253 -0.075792,0.15348 0,0.06632 0.062529,0.119372 0.06063,0.05495 0.28801,0.10232 0.562757,0.121267 0.805292,0.246324 0.24443,0.123163 0.354328,0.306959 0.111794,0.183796 0.111794,0.411172 0,0.267168 -0.147795,0.492649 -0.147795,0.225482 -0.413067,0.34296 -0.265273,0.115583 -0.668866,0.115583 -0.7086574,0 -0.9815092,-0.272852 -0.2728519,-0.272852 -0.3088532,-0.693498 z m 2.6773594,-1.093302 h 0.814766 l 0.414962,1.339626 0.384645,-1.339626 h 0.759817 l -0.797713,2.150603 q -0.136426,0.367592 -0.278536,0.496439 -0.20085,0.181901 -0.612022,0.181901 -0.166743,0 -0.515387,-0.04547 l -0.06063,-0.538125 q 0.166743,0.05306 0.371382,0.05306 0.136426,0 0.219797,-0.06253 0.08527,-0.06253 0.144005,-0.223587 z m 2.593987,0 h 0.718131 v 0.327801 q 0.161059,-0.20085 0.325907,-0.286116 0.164848,-0.08716 0.401698,-0.08716 0.320222,0 0.500229,0.191375 0.181901,0.189481 0.181901,0.58739 v 1.278993 h -0.774975 v -1.106566 q 0,-0.18948 -0.07011,-0.267167 -0.07011,-0.07958 -0.19706,-0.07958 -0.140215,0 -0.227376,0.106109 -0.08716,0.106109 -0.08716,0.380856 v 0.96635 h -0.771186 z m 4.088989,1.225938 0.733289,0.08337 q -0.06063,0.229271 -0.198955,0.397908 -0.13832,0.166743 -0.354328,0.259589 -0.214113,0.09285 -0.545704,0.09285 -0.320222,0 -0.534335,-0.05874 -0.212218,-0.06063 -0.365697,-0.19327 -0.153479,-0.134531 -0.24064,-0.314537 -0.08716,-0.180007 -0.08716,-0.477491 0,-0.310748 0.106109,-0.517282 0.07769,-0.151584 0.212218,-0.270957 0.134531,-0.121267 0.276642,-0.180006 0.225481,-0.09285 0.577915,-0.09285 0.492649,0 0.750343,0.176217 0.259588,0.176217 0.363802,0.515387 l -0.72571,0.09663 q -0.03411,-0.128847 -0.125057,-0.19327 -0.08906,-0.06632 -0.24064,-0.06632 -0.191376,0 -0.310748,0.13832 -0.117478,0.136426 -0.117478,0.414963 0,0.248219 0.117478,0.377066 0.117478,0.128846 0.299379,0.128846 0.151584,0 0.253904,-0.07769 0.104214,-0.07769 0.155374,-0.238746 z"
       id="text12"
       aria-label="Sync" />
    <g
       id="text14"
       style="font-weight:900;font-size:3.88056px;font-family:Arial;-inkscape-font-specification:'Arial, Heavy';text-align:center;text-anchor:middle;stroke:#000000;stroke-width:0.264999;fill:#ffffff"
       aria-label="V/Oct&#10;Residual">
      <path
         style="stroke-width:0.265;fill:#ffffff;stroke:#000000"
         d="m 8.30395,69.179873 h 0.8981374 l 0.6252855,1.999019 0.6158111,-1.999019 h 0.871611 l -1.030774,2.777784 H 9.3536718 Z m 3.704343,-0.04737 h 0.394119 l -0.697288,2.870629 h -0.390329 z m 0.558967,1.438157 q 0,-0.680235 0.378961,-1.059196 0.378961,-0.378961 1.055407,-0.378961 0.693498,0 1.068669,0.373277 0.375172,0.371381 0.375172,1.042142 0,0.486965 -0.164848,0.799608 -0.162954,0.310748 -0.473701,0.48507 -0.308854,0.172427 -0.771186,0.172427 -0.469912,0 -0.778765,-0.14969 Q 12.950011,71.705648 12.758636,71.381636 12.56726,71.057625 12.56726,70.57066 Z m 0.858347,0.0038 q 0,0.420647 0.155374,0.604443 0.157269,0.183796 0.426331,0.183796 0.276641,0 0.428226,-0.180006 0.151584,-0.180007 0.151584,-0.646129 0,-0.392224 -0.159163,-0.572231 -0.157269,-0.181901 -0.428226,-0.181901 -0.259588,0 -0.416857,0.183796 -0.157269,0.183796 -0.157269,0.608232 z m 3.93172,0.596864 0.733289,0.08337 q -0.06063,0.229272 -0.198954,0.397909 -0.138321,0.166743 -0.354329,0.259589 -0.214113,0.09284 -0.545704,0.09284 -0.320222,0 -0.534335,-0.05874 -0.212218,-0.06063 -0.365697,-0.19327 -0.153479,-0.134531 -0.24064,-0.314538 -0.08716,-0.180006 -0.08716,-0.47749 0,-0.310748 0.106109,-0.517282 0.07769,-0.151584 0.212218,-0.270957 0.134531,-0.121268 0.276642,-0.180007 0.225481,-0.09284 0.577915,-0.09284 0.492649,0 0.750343,0.176217 0.259588,0.176217 0.363802,0.515387 l -0.72571,0.09663 q -0.03411,-0.128847 -0.125057,-0.19327 -0.08906,-0.06632 -0.24064,-0.06632 -0.191376,0 -0.310748,0.13832 -0.117478,0.136426 -0.117478,0.414962 0,0.24822 0.117478,0.377067 0.117478,0.128846 0.299379,0.128846 0.151584,0 0.253904,-0.07769 0.104214,-0.07769 0.155374,-0.238745 z m 2.017967,-1.99144 v 0.765501 h 0.424436 v 0.562757 h -0.424436 v 0.714342 q 0,0.128846 0.02463,0.170532 0.0379,0.06442 0.132637,0.06442 0.08527,0 0.238745,-0.04926 l 0.05684,0.53244 q -0.286115,0.06253 -0.534335,0.06253 -0.28801,0 -0.424436,-0.0739 -0.136426,-0.0739 -0.202744,-0.223587 -0.06442,-0.151585 -0.06442,-0.48886 v -0.708657 h -0.284221 v -0.562757 h 0.284221 v -0.369487 z"
         id="path16" />
      <path
         style="stroke-width:0.265;fill:#ffffff;stroke:#000000"
         d="m 5.2950002,76.808357 v -2.777784 h 1.4305775 q 0.397909,0 0.6082323,0.06821 0.2103233,0.06821 0.33917,0.253904 0.1288468,0.183796 0.1288468,0.449069 0,0.231166 -0.09853,0.399803 -0.09853,0.166743 -0.2709571,0.270957 -0.1098986,0.06632 -0.3012739,0.109899 0.1534792,0.05116 0.223587,0.10232 0.04737,0.03411 0.1364259,0.1459 0.090951,0.111793 0.1212675,0.172427 l 0.4149622,0.805292 h -0.97014 L 6.5986258,75.959484 q -0.087161,-0.164848 -0.155374,-0.214113 -0.092845,-0.06442 -0.2103233,-0.06442 h -0.075792 v 1.127409 z m 0.8621361,-1.65227 H 6.519044 q 0.058739,0 0.2273766,-0.0379 0.085266,-0.01705 0.1383207,-0.08716 0.054949,-0.07011 0.054949,-0.161058 0,-0.134532 -0.085266,-0.206534 -0.085266,-0.072 -0.320222,-0.072 H 6.1571363 Z m 4.2310987,0.837504 H 8.8420744 q 0.020843,0.185691 0.1004247,0.276641 0.1117934,0.130742 0.2917999,0.130742 0.1136883,0 0.2160077,-0.05684 0.062529,-0.036 0.1345311,-0.126952 l 0.7598172,0.07011 q -0.174323,0.303169 -0.4206471,0.435806 -0.2463246,0.130741 -0.7067622,0.130741 -0.3998037,0 -0.6290751,-0.111793 Q 8.3588992,76.62835 8.2073149,76.383921 8.0576253,76.137596 8.0576253,75.806005 q 0,-0.471806 0.3012739,-0.763606 0.3031688,-0.2918 0.8356089,-0.2918 0.4320155,0 0.6821297,0.130741 0.2501142,0.130742 0.3808552,0.378961 0.130742,0.24822 0.130742,0.646129 z M 9.6037859,75.624104 q -0.022738,-0.223587 -0.1212675,-0.320222 -0.096635,-0.09664 -0.2557986,-0.09664 -0.1837961,0 -0.2936948,0.1459 -0.070108,0.09095 -0.089056,0.270957 z m 1.0023511,0.62718 0.765502,-0.072 q 0.04737,0.136426 0.132636,0.195164 0.08527,0.05874 0.227376,0.05874 0.155374,0 0.240641,-0.06632 0.06632,-0.04927 0.06632,-0.123162 0,-0.08337 -0.08716,-0.128847 -0.06253,-0.03221 -0.331591,-0.07958 -0.401699,-0.07011 -0.558967,-0.128846 -0.155374,-0.06063 -0.263378,-0.202744 -0.106109,-0.142111 -0.106109,-0.324012 0,-0.198954 0.115583,-0.34296 0.115583,-0.144005 0.318327,-0.214113 0.202744,-0.072 0.543809,-0.072 0.360013,0 0.530545,0.05495 0.172427,0.05495 0.286116,0.170533 0.115583,0.115583 0.191375,0.312642 l -0.731395,0.072 q -0.02842,-0.09664 -0.09474,-0.14211 -0.09095,-0.06063 -0.219797,-0.06063 -0.130742,0 -0.191375,0.04737 -0.05874,0.04547 -0.05874,0.111794 0,0.0739 0.07579,0.111793 0.07579,0.0379 0.329696,0.06821 0.384645,0.04358 0.572231,0.121267 0.187585,0.07769 0.286115,0.221693 0.100425,0.144005 0.100425,0.316432 0,0.174322 -0.106109,0.33917 -0.104214,0.164848 -0.331591,0.263378 -0.225482,0.09664 -0.615811,0.09664 -0.551389,0 -0.786344,-0.157269 -0.233061,-0.157269 -0.29938,-0.447174 z m 2.535249,-2.220711 h 0.771185 v 0.524861 h -0.771185 z m 0,0.765501 h 0.771185 v 2.012283 h -0.771185 z m 3.382227,-0.765501 v 2.777784 h -0.721921 v -0.297485 q -0.151584,0.189481 -0.276641,0.255799 -0.166743,0.08716 -0.371382,0.08716 -0.411173,0 -0.629075,-0.312643 -0.216008,-0.312642 -0.216008,-0.759816 0,-0.500229 0.238746,-0.765501 0.24064,-0.265273 0.610127,-0.265273 0.180006,0 0.325906,0.06063 0.147795,0.06063 0.261483,0.181901 v -0.962561 z m -0.773081,1.765958 q 0,-0.236851 -0.100424,-0.352434 -0.100425,-0.117477 -0.253904,-0.117477 -0.134531,0 -0.225482,0.111793 -0.09095,0.111793 -0.09095,0.375171 0,0.246325 0.09285,0.361908 0.09474,0.113688 0.233061,0.113688 0.147795,0 0.246325,-0.115583 0.09853,-0.115583 0.09853,-0.377066 z m 3.363278,1.011826 H 18.393784 V 76.48245 q -0.161058,0.20085 -0.325906,0.286116 -0.162953,0.08527 -0.401699,0.08527 -0.318327,0 -0.500228,-0.18948 -0.180006,-0.191376 -0.180006,-0.58739 v -1.280888 h 0.774975 v 1.106566 q 0,0.189481 0.07011,0.269062 0.07011,0.07958 0.19706,0.07958 0.138321,0 0.225482,-0.106109 0.08906,-0.106109 0.08906,-0.380856 v -0.968245 h 0.771185 z m 1.17099,-1.36047 -0.737079,-0.07769 q 0.04169,-0.19327 0.119373,-0.303169 0.07958,-0.111793 0.227376,-0.19327 0.106109,-0.05874 0.2918,-0.09095 0.185691,-0.03221 0.401699,-0.03221 0.346749,0 0.557072,0.03979 0.210323,0.0379 0.350539,0.161058 0.09853,0.08527 0.155374,0.242535 0.05684,0.155374 0.05684,0.297485 v 0.888663 q 0,0.14211 0.01705,0.223587 0.01895,0.07958 0.07958,0.204639 h -0.723815 q -0.04358,-0.07769 -0.05684,-0.117478 -0.01326,-0.04169 -0.02653,-0.128847 -0.151584,0.1459 -0.301274,0.208429 -0.204638,0.08337 -0.475595,0.08337 -0.360013,0 -0.547599,-0.166743 -0.185691,-0.166743 -0.185691,-0.411172 0,-0.229272 0.134531,-0.377066 0.134531,-0.147795 0.496439,-0.219798 0.43391,-0.08716 0.562757,-0.121267 0.128847,-0.036 0.272852,-0.09285 0,-0.14211 -0.05874,-0.198954 -0.05874,-0.05684 -0.206534,-0.05684 -0.18948,0 -0.28422,0.06063 -0.0739,0.04737 -0.119373,0.178112 z m 0.668866,0.405488 q -0.159164,0.05684 -0.331591,0.100425 -0.234956,0.06253 -0.297484,0.123162 -0.06442,0.06253 -0.06442,0.142111 0,0.09095 0.06253,0.149689 0.06442,0.05684 0.187586,0.05684 0.128846,0 0.238745,-0.06253 0.111793,-0.06253 0.157269,-0.151585 0.04737,-0.09095 0.04737,-0.234955 z m 1.242991,-1.822802 h 0.773081 v 2.777784 h -0.773081 z"
         id="path17" />
    </g>
  </g>
</svg>
